<svg xmlns="http://www.w3.org/2000/svg" width="66.75" height="87.648" viewBox="0 0 66.75 87.648">
  <g id="composer" transform="translate(-11.168 -0.307)">
    <g id="Group_513" data-name="Group 513" transform="translate(12.706 26.881)">
      <path id="Path_334" data-name="Path 334" d="M351.15,151.465a.454.454,0,0,0,.344-.477c.044-.653.1-1.315.159-1.968.071-.891.15-1.782.23-2.727l-.15.035c-5.215,1.527-10.792,2.956-16.007,4.474-.265.08-.018.494.088.68.821,1.438,1.694,2.762,2.5,4.209.071.123.132.185.221.2.044,0,.185-.115.238-.132q6.181-2.157,12.38-4.3Z" transform="translate(-287.779 -146.294)" fill="#6399d4"/>
      <path id="Path_335" data-name="Path 335" d="M83.375,178.181l2.479.344c1.271.176,2.542.344,3.812.52a.219.219,0,0,0,.071.009c.15-.009.176-.141.212-.274q.5-1.68,1.023-3.353c.08-.238.009-.309-.221-.371q-3.56-.926-7.121-1.871t-7.112-1.88a.487.487,0,0,0-.141-.026.136.136,0,0,0-.141.071.126.126,0,0,0-.017.053.434.434,0,0,0-.018.115q-.263,2.627-.565,5.25c-.026.221.018.318.185.362.035.009.079.017.132.026,2.471.344,4.95.68,7.421,1.024Z" transform="translate(-75.63 -166.684)" fill="#6399d4"/>
    </g>
    <path id="Path_336" data-name="Path 336" d="M206.893,369.658l-.737,2.164-.424,1.167.1,1.451-1.429,2.314.743,1.538v1.644l2.174.742.424-.848,3.182-1.7,2.7-1.008.726-.673,1.554.514,1.8-.318,7.478,2.864.318-1.538v-2.068l.583-1.167-1.943-4.463" transform="translate(-168.009 -301.685)" fill="#df352e"/>
    <g id="Group_514" data-name="Group 514" transform="translate(11.909 0.962)">
      <path id="Path_337" data-name="Path 337" d="M132.584,38.349q.3.384.593.77l0,0a.506.506,0,0,0,.391.223.469.469,0,0,0,.231-.064c.2-.109.414-.208.621-.3a6.11,6.11,0,0,0,1.218-.684c1.478-1.171,2.776-2.284,3.97-3.4a.94.94,0,0,0,.391-.822c0-.031,0-.063,0-.1a.582.582,0,0,0-.265-.622.465.465,0,0,0-.228-.061.554.554,0,0,0-.359.157c-.013.011-.033.028-.043.034a2.212,2.212,0,0,0-.239.139c-.053.034-.1.066-.148.09-.4.207-.793.427-1.176.639a22.517,22.517,0,0,1-2.617,1.307c-.31.121-.623.247-.925.369-.6.241-1.219.491-1.842.712l-.034.008a.443.443,0,0,0-.356.265.438.438,0,0,0,.107.425C132.112,37.738,132.352,38.049,132.584,38.349Z" transform="translate(-120.634 -28.162)" fill="#c18f69"/>
      <path id="Path_338" data-name="Path 338" d="M146.657,59.891l0-.01,0-.009a.488.488,s0,0,0-.419-.3.668.668,0,0,0-.285.08,5.069,5.069,0,0,0-1.069.728,5.441,5.441,0,0,1-.785.569.438.438,0,0,0-.242.3.505.505,0,0,0,.155.419l.007.008L146,63.955a.612.612,0,0,1,.056.091c.011.021.022.04.031.056l.126.209.225-.094.089-.036a.624.624,0,0,0,.121-.057l.47-.29.469-.289a.437.437,0,0,0,.182-.578c-.13-.357-.255-.727-.375-1.084C147.169,61.226,146.94,60.545,146.657,59.891Z" transform="translate(-130.496 -49.606)" fill="#c18f69"/>
      <path id="Path_339" data-name="Path 339" d="M84.049,58l.275-.158.4-.228-.384-.254c-.246-.162-.493-.322-.733-.477a22.067,22.067,0,0,1-2.329-1.647l-.349-.295-.108.444c-.09.368-.159.652-.219.935a.524.524,0,0,1-.121-.127c-.03-.038-.061-.076-.1-.114l-.007-.007-.007-.007a.294.294,0,0,1-.1-.15,8.851,8.851,0,0,0,.348-.932c.064-.194.125-.377.193-.558.019-.047.043-.107.065-.158.047.034.1.072.128.1l0,0a.668.668,0,0,1,.07.057,11.906,11.906,0,0,0,3.251,2.428,2.124,2.124,0,0,0,.969.28,1.451,1.451,0,0,0,.954-.378l.023-.013a.834.834,0,0,0,.074-.045.421.421,0,0,0,.171-.565c-.029-.06-.053-.129-.079-.2a1.3,1.3,0,0,0-.35-.593l0,0c-.636-.54-1.242-1.138-1.828-1.715l-.23-.227a13.446,13.446,0,0,1-2.1-2.432,4.629,4.629,0,0,0-.706-.892,1.1,1.1,0,0,0-.762-.314,1.016,1.016,0,0,0-.91.563c-.254.471-.56.927-.855,1.368-.272.406-.553.825-.8,1.265-.228.409-.488.813-.741,1.2a16.606,16.606,0,0,0-1.032,1.758.946.946,0,0,0-.015.821c.073.179.153.355.231.525a8.54,8.54,0,0,1,.372.909l-.146-.24c-.25-.411-.509-.837-.741-1.271-.333-.607-.657-1.235-.969-1.842a33.153,33.153,0,0,0-2.508-4.32l0,0c0-.008-.011-.025-.016-.037a.447.447,0,0,0-.4-.322.47.47,0,0,0-.21.053.635.635,0,0,0-.4.72c.049.258.091.525.132.783a14.869,14.869,0,0,0,.288,1.487c.716,2.7,1.6,5.4,2.454,8.007q.227.693.453,1.386c.032.1.131.405.437.405h0a.707.707,0,0,0,.351-.122c2.588-1.462,5.231-2.952,7.858-4.427C83.54,58.291,83.788,58.148,84.049,58Z" transform="translate(-71.301 -41.593)" fill="#c18f69"/>
      <path id="Path_340" data-name="Path 340" d="M107.187,80.619a3.077,3.077,0,0,0,.586-.834,30.158,30.158,0,0,1,2.274-4.038,19.721,19.721,0,0,1,3.191-3.958,2.373,2.373,0,0,0,.674-1.206,1.06,1.06,0,0,0-.39-1.095l0,0a1.032,1.032,0,0,0-.628-.226.967.967,0,0,0-.575.2l0,0a19.144,19.144,0,0,1-3.78,2.056l-.537.243c-.081.038-.165.076-.25.113a2.961,2.961,0,0,0-1.658,1.32l-.032.018-.007,0a4.621,4.621,0,0,1-1.489.562.517.517,0,0,1-.1.006h-.03a.783.783,0,0,0-.445.11c-3.139,1.963-6.333,3.949-9.493,5.9a.529.529,0,0,0-.23.768c.134.281.268.568.4.847A26.822,26.822,0,0,0,96.094,84.2c.069.147.054.189-.007.272a7.414,7.414,0,0,0-1.134,3,.594.594,0,0,0-.05.543.574.574,0,0,0,.488.277,3.57,3.57,0,0,1,.37.078c.067.016.136.033.205.049,1.6.434,3.238.844,4.857,1.219a.908.908,0,0,0,.407.107.75.75,0,0,0,.171-.02l.017,0,.017-.006a.373.373,0,0,0,.246-.392v-.014l1-3.348c.013-.04.024-.079.034-.117a.405.405,0,0,1,.087-.2,2.034,2.034,0,0,0,.809-1.611v-.006a1.813,1.813,0,0,1,.048-.3,2.574,2.574,0,0,0,.057-.341.357.357,0,0,1,.235-.351A9.759,9.759,0,0,0,107.187,80.619Z" transform="translate(-89.972 -57.513)" fill="#c18f69"/>
      <path id="Path_341" data-name="Path 341" d="M195.431,266.987l-.006,0-.006,0a2,2,0,0,0-.6-.092,1.7,1.7,0,0,0-.243.02l-.013,0-.014,0-.018,0a.533.533,0,0,0-.1.021.446.446,0,0,0-.092.043L194.3,267l-.071.071-.016.024a.44.44,0,0,0-.02.406c0,.009.007.021.01.031a1.046,1.046,0,0,0-.02.188.682.682,0,0,1-.007.087c-.035.1-.067.191-.1.278-.059.138-.123.276-.192.41a5.34,5.34,0,0,1-.643.907,1.2,1.2,0,0,1,.07-.247l.007-.018,0-.01.007-.013.017-.032,0-.005,0-.005a4.762,4.762,0,0,1,.226-.42l.07-.121a.646.646,0,0,1,.04-.056,1.135,1.135,0,0,0,.074-.1l.015-.024,0,0,.022-.052a.429.429,0,0,0,.03-.234,1.867,1.867,0,0,0-.64-.989,1.72,1.72,0,0,0-.3-.222.937.937,0,0,0-.317-.121c-.123-.019-.234-.028-.352-.038h-.007a4.3,4.3,0,0,1-.849-.128l-.081-.027c-.462-.145-.922-.314-1.369-.5-.147-.062-.294-.128-.437-.2l-.005,0a10.81,10.81,0,0,1-1.677-.954l-.452-.312c-.249-.171-.506-.348-.756-.526l-.231-.16c-.188-.13-.382-.265-.567-.4l0,0c-.394-.28-.784-.576-1.159-.88l-.009-.007-.01-.007-.018-.014c-.014-.011-.03-.025-.05-.039s-.065-.049-.094-.069-.047-.033-.064-.047l-.008-.007-.051-.036c-.041-.029-.076-.054-.108-.08l-.009-.007a.746.746,0,0,1-.16-.157c-.038-.055-.078-.109-.119-.159-.015-.019-.03-.039-.045-.06s-.039-.054-.06-.08c-.1-.125-.2-.249-.3-.369a4.6,4.6,0,0,1-1.023-1.643l-.216-.748-.314.712a8.176,8.176,0,0,1-.986,1.712c-.133.168-.309.385-.493.579a5.66,5.66,0,0,1-2.558,1.531,6.93,6.93,0,0,1-1.287.242c.051-.044.1-.091.158-.144.192-.172.4-.34.6-.5a7.649,7.649,0,0,0,1.224-1.143l.042-.028.009-.006a.456.456,0,0,0,.187-.325v-.354h-.283a.309.309,0,0,0-.073.009h-.009l-.044.015a.685.685,0,0,0-.3.171c-.394.23-.807.449-1.208.661l-.313.166,0,0-.109.059-.118.064c-.13.07-.254.135-.384.192l-.007,0-.007,0c-.237.119-.468.219-.662.3a12.3,12.3,0,0,1-3.384.862c-.658.079-1.329.142-1.978.2s-1.322.115-1.976.158l-.036,0c-.419.025-.852.051-1.277.068-.038,0-.074,0-.109,0s-.057,0-.079,0c-.072,0-.142,0-.21,0s-.122,0-.178,0c-.14,0-.273.009-.407.018a3.206,3.206,0,0,0-.418.056,1.763,1.763,0,0,0-.177.039l-.039.01a15.822,15.822,0,0,0-3.21,1.179c-.276.143-.552.3-.819.459-.182.11-.36.23-.53.357a3.226,3.226,0,0,0-.262.2,1.877,1.877,0,0,0-.54.613.868.868,0,0,0-.059.139c0,.013-.009.026-.011.036l0,.009-.008.031c0,.02-.01.042-.015.064s-.008.035-.012.051l0,.014,0,.015a1.546,1.546,0,0,0-.012.226v.013a2.375,2.375,0,0,0,.2.8,17.759,17.759,0,0,0,1.711,3.191,2.282,2.282,0,0,0,.373.433l.018.016.524.333.02.009a2.583,2.583,0,0,0,1.04.2c.352,0,.471.075.583.367a6.1,6.1,0,0,0,2.383,2.859l.007,0,.071.047c.048.032.1.068.162.1s.133.078.208.125l0,0,0,0c.323.184.619.385.867.558l.144.1.133.1a11.282,11.282,0,0,1,1.029.883l.083.081c.054.052.106.1.152.154l0,0,0,0c.322.325.639.662.943,1l.075.086c.049.057.1.116.157.173.076.089.154.176.229.26s.15.168.222.252l0,0a9.668,9.668,0,0,1,.986,1.311l.005.009.006.008a1.3,1.3,0,0,1,.07.118l.03.054a4.124,4.124,0,0,1,.314.668l0,.008a2.6,2.6,0,0,0,.95,1.147,7.024,7.024,0,0,0,.613.4l.009.005.153.086c.1.059.213.121.329.182l.005,0c.107.053.21.113.32.177s.227.131.348.192a3.028,3.028,0,0,0,.581.241h0l.1.026a.568.568,0,0,0,.069.015h0l.017.006.027,0a10.3,10.3,0,0,0,1.414.109,6.588,6.588,0,0,0,.8-.047l.052-.006c.2-.024.4-.05.6-.083.18-.024.349-.053.528-.084l.063-.011a.424.424,0,0,0,.054-.008h.009l.023,0c.2-.034.409-.074.609-.116.511-.1,1.024-.234,1.523-.385.163-.047.327-.1.488-.154l.007,0,.007,0a.606.606,0,0,1,.091-.029l.018,0,.018-.006c.153-.052.307-.11.457-.17.033-.011.063-.024.09-.035l.06-.024.01,0,.01,0,.087-.036.111-.046.242-.107c.215-.1.43-.205.639-.315l.005,0c.263-.145.526-.3.78-.457l.008,0c.132-.088.256-.177.376-.262l.014-.01a7.05,7.05,0,0,0,.965-.846c.138-.147.267-.3.391-.455l0,0a14.288,14.288,0,0,0,1.52-2.454c.042-.079.081-.159.118-.236s.073-.15.11-.22l0-.006c.116-.232.224-.474.328-.708l.006-.013c.014-.033.029-.069.043-.1s.025-.061.037-.09l0-.007,0-.008a7.3,7.3,0,0,0,.264-1.025c.018-.087.036-.175.056-.265l.112-.52-.494.2-.146.057c-.078.03-.159.061-.24.1l-.093.04c-.149.065-.29.125-.431.175a1.973,1.973,0,0,1-.478.108h-.013a.611.611,0,0,1-.088.006h-.022c-.127,0-.141-.024-.159-.081l.01,0,.01-.005a.24.24,0,0,1,.043-.01l.014,0,.014,0a.877.877,0,0,0,.1-.037h0c.042-.017.085-.034.125-.053l.12-.048.083-.032a7.4,7.4,0,0,0,1.7-.821,7.838,7.838,0,0,0,.949-.776c.116-.107.235-.217.347-.339a5.855,5.855,0,0,0,1.216-1.841.668.668,0,0,0,.031-.074c.024-.054.056-.11.089-.168a2.4,2.4,0,0,0,.119-.23.141.141,0,0,1,.022-.038.109.109,0,0,1,.037,0,1.991,1.991,0,0,0,.282-.026c.053-.008.1-.015.151-.018h.22a2.482,2.482,0,0,0,1.983-1.261,6.447,6.447,0,0,0,.741-1.439l0-.008a1.781,1.781,0,0,1,.076-.176l0-.006,0-.007a2.864,2.864,0,0,0,.288-.989v-.02l0-.017A.453.453,0,0,0,195.431,266.987Zm-9,3.641h0a6.891,6.891,0,0,0-.7-.072l-.257-.019a1.969,1.969,0,0,1-1.03-.308,1.921,1.921,0,0,0-1.034-.3h0a2.539,2.539,0,0,1-1.087-.43l-.122-.07c-.106-.064-.144-.158-.161-.4v-.006a1.176,1.176,0,0,0-.188-.7,1.132,1.132,0,0,0-.654-.285,2.831,2.831,0,0,1-1.708-1.118,2.062,2.062,0,0,1-.362-1c-.035-.293-.056-.6-.067-1a1.092,1.092,0,0,1,.248.45v0a5.991,5.991,0,0,0,.193.7c.283.907,1.044,1.041,1.657,1.149l.187.034a22.863,22.863,0,0,0,4.08.385,19.23,19.23,0,0,0,2.683-.186l-.057.021c-.145.054-.3.109-.439.161a12.22,12.22,0,0,1-3.224.771l-.088,0a3.635,3.635,0,0,1-.748-.108c-.166-.036-.338-.072-.511-.095l-.076-.014a1.153,1.153,0,0,0-.234-.029.731.731,0,0,0-.178.022l-.249.062.038.254a1.351,1.351,0,0,0,.667.939,2.749,2.749,0,0,0,1.5.52,14.258,14.258,0,0,0,2.707-.278,1.5,1.5,0,0,0,.51-.213c.271-.165.549-.319.812-.458-.5.461-1.064.942-1.737,1.487a.438.438,0,0,1-.287.134A.486.486,0,0,1,186.431,270.628ZM174.65,281.154a3.075,3.075,0,0,1-.181.614l-.01-.014a1.383,1.383,0,0,1-.187-.653c-.008-.064-.017-.131-.027-.2a4.723,4.723,0,0,0,.11-.57,2.821,2.821,0,0,1,.176-.735,1.952,1.952,0,0,1,1.388-.944l.236-.077a8.571,8.571,0,0,1,2.5-.435h.095a2.373,2.373,0,0,1,1.868.8,4.179,4.179,0,0,0-1.712-.422c-.18-.018-.366-.036-.548-.062a1.071,1.071,0,0,0-.139-.009,1.03,1.03,0,0,0-.372.07l-.349.135c-.512.2-1.042.4-1.557.627a2.019,2.019,0,0,0-1.193,1.47C174.71,280.883,174.679,281.021,174.65,281.154Zm6.211-4.965a1.048,1.048,0,0,0-.219.029l-.024,0a11.194,11.194,0,0,0-2.458.8,1.754,1.754,0,0,1-.674.15,1.321,1.321,0,0,1-.811-.283,1.947,1.947,0,0,0-1.181-.428,2.132,2.132,0,0,0-1.031.291,2.588,2.588,0,0,1-1.25.358,2.068,2.068,0,0,1-.6-.09.467.467,0,0,1-.142-.056l-.005,0-.044-.037.043-.028.063-.04a2.981,2.981,0,0,0,.337-.238l.008-.007a.318.318,0,0,1,.24-.1.962.962,0,0,1,.2.027,1.239,1.239,0,0,0,.279.032,1.638,1.638,0,0,0,.925-.322,1.531,1.531,0,0,1,.893-.3,2.371,2.371,0,0,1,1.1.327l.049.029.018.01a1.722,1.722,0,0,0,1.042.467,1.29,1.29,0,0,0,.906-.423.78.78,0,0,1,.476-.09,2.8,2.8,0,0,0,.337-.019c.152-.021.309-.038.461-.056a4.991,4.991,0,0,0,1.824-.446c.039.061.08.116.117.167a.63.63,0,0,1,.162.311v.01s0,.016,0,.018l-.1.043a1.078,1.078,0,0,1-.383.124.289.289,0,0,1-.206-.1A.522.522,0,0,0,180.861,276.189Zm-13.691-6.581a.187.187,0,0,1-.063.013.293.293,0,0,1-.176-.084l-.027-.022.02-.009a6.118,6.118,0,0,1,1.077-.33l.122-.029c.113.013.218.022.321.03a3.612,3.612,0,0,1,.55.073,6.973,6.973,0,0,0,1.607.18,9.618,9.618,0,0,0,1.773-.177,4.378,4.378,0,0,1,.756-.081,1.919,1.919,0,0,1,.7.12,1.165,1.165,0,0,0,.128.04l.057.017.03.026-.074.01c-.512.068-1,.133-1.5.183a1.379,1.379,0,0,0-.519.183c-.086.047-.171.1-.253.143a4.528,4.528,0,0,1-.778.384,1.978,1.978,0,0,1-.63.111,1.6,1.6,0,0,1-1.023-.379,2.087,2.087,0,0,0-1.354-.54A2.141,2.141,0,0,0,167.17,269.608Zm.541-3.228.049,0c.026,0,.056,0,.089.005,2.214.138,4.27.354,6.285.659a2.565,2.565,0,0,0,.381.03,1.679,1.679,0,0,0,1.422-.7l.128-.17a9.328,9.328,0,0,0,.648-.933,1.137,1.137,0,0,1,.138-.2c.029.016.069.066.043.263v0a3.172,3.172,0,0,1-1.383,2.378.463.463,0,0,0-.214.317.437.437,0,0,0,.132.34,4.977,4.977,0,0,1,1.032,3.02,2.547,2.547,0,0,1-.271,1.368.644.644,0,0,0,.187.873c.22.186.421.387.634.6a.7.7,0,0,0,.5.23.749.749,0,0,0,.45-.166,2.3,2.3,0,0,0,.39-.384l.071-.082,0-.005.159-.19a4.709,4.709,0,0,1,1.174-1.126.767.767,0,0,1,.384-.12.337.337,0,0,1,.279.123,2.629,2.629,0,0,0-1.2,1.141l-.082.122c-.171.251-.329.511-.481.763-.057.094-.113.188-.17.28a1.12,1.12,0,0,1-.949.546,1.149,1.149,0,0,1-.773-.306l-.181-.162a4.474,4.474,0,0,1-.6-.6,1.691,1.691,0,0,0-1.222-.663,2.207,2.207,0,0,1,.488-.544,1.776,1.776,0,0,0,.632-1.631,7.568,7.568,0,0,0-.4-2.155v0a2.078,2.078,0,0,0-.963-1.216,1.585,1.585,0,0,0-.574-.15l-.09-.011c-.5-.07-1.006-.151-1.5-.23-.939-.151-1.911-.308-2.887-.389-.312-.026-.628-.039-.938-.039a11.5,11.5,0,0,0-2.117.2,7.557,7.557,0,0,1,1.211-1.025Zm-6.323,1.614a1.433,1.433,0,0,1,.32.68c.031.112.064.228.105.341a1.555,1.555,0,0,0,.625.885.706.706,0,0,1,.313.478,2.081,2.081,0,0,0-.737-.606,1.516,1.516,0,0,1-.875-1.718.244.244,0,0,1,.155-.179A.763.763,0,0,0,161.387,267.994Z" transform="translate(-143.354 -212.402)" fill="#c18f69"/>
      <path id="Path_342" data-name="Path 342" d="M290.475,31.077c-.821-2.16-1.573-4.1-2.469-6.026l0,0a.592.592,0,0,1-.04-.53,5.7,5.7,0,0,0,.472-3.078,4.754,4.754,0,0,1-.011-.729,5.386,5.386,0,0,0-.015-.822,20.393,20.393,0,0,0-.627-2.939c-.1-.389-.21-.791-.305-1.188a15.935,15.935,0,0,0-1.228-3.152c-.189-.4-.385-.811-.561-1.22a14.241,14.241,0,0,0-1.039-1.865c-.2-.313-.4-.637-.58-.959-.141-.25-.294-.494-.442-.73-.185-.3-.36-.576-.516-.868a2.763,2.763,0,0,0-1.281-1.344h0l-.061-.029a.849.849,0,0,0-.371-.111.445.445,0,0,0-.351.167l-.006.007a.959.959,0,0,0-.213.95c.1.237.2.476.3.708s.2.464.3.7c.136.322.28.646.419.959a17.46,17.46,0,0,1,1.1,2.943l.029.116a8.336,8.336,0,0,1,.272,1.466V13.5a.657.657,0,0,1,0,.1.689.689,0,0,0-.068-.087,1.969,1.969,0,0,0-1.372-.777,1.249,1.249,0,0,0-.48.1l-.008,0a.622.622,0,0,1-.252.048.936.936,0,0,1-.161-.015l-.027-.006.018-.012c.031-.02.067-.041.1-.063a1.355,1.355,0,0,0,.243-.164l0,0a.58.58,0,0,0,.113-.845c-.086-.107-.173-.221-.256-.332a4.791,4.791,0,0,0-.829-.92c-.783-.614-1.7-1.32-2.651-1.93l-.007,0c-.063-.038-.125-.077-.191-.119s-.137-.087-.206-.128c-1.5-.9-3.142-1.794-5.023-2.72a1.775,1.775,0,0,0-.791-.217c-.029,0-.058,0-.087,0h-.009l-.055,0a.646.646,0,0,0-.619.37.794.794,0,0,0,.132.847l.034.039a2.647,2.647,0,0,0,.679.608c.219.124.444.242.662.357a10.092,10.092,0,0,1,1.494.9c1.247.956,2.585,1.994,3.91,3.1a13.289,13.289,0,0,1,1.123,1.072l.666.693a.329.329,0,0,1,.079.111c0,.009,0,.018.005.026v.005a.186.186,0,0,1-.032.039c-.035.036-.052.036-.058.036a.669.669,0,0,1-.225-.1.617.617,0,0,1-.1-.1l-.052-.06-.005-.006-.112-.112c-.058-.058-.114-.116-.17-.174-.113-.117-.231-.239-.361-.357l-.018-.016a2.446,2.446,0,0,0-.237-.19c-.493-.37-.994-.743-1.479-1.1s-.987-.736-1.48-1.106l-.111-.083c-.935-.7-1.9-1.426-2.843-2.139a10.348,10.348,0,0,0-1.823-1.107.8.8,0,0,0-.349-.091.66.66,0,0,0-.487.245l-.006.007a.866.866,0,0,0-.125,1,3.512,3.512,0,0,0,.881,1.114l.254.215a9.219,9.219,0,0,1,1,.93l0,0c.511.567,1.033,1.14,1.537,1.694,1.324,1.455,2.694,2.959,3.988,4.483a.7.7,0,0,1,.167.356.383.383,0,0,1,0,.1.346.346,0,0,1-.08-.017,1.564,1.564,0,0,1-.144-.076l-.1-.059a71.247,71.247,0,0,1-6.389-3.917,11.278,11.278,0,0,0-1.99-1.1l-.014-.007a1.073,1.073,0,0,0-.449-.128.59.59,0,0,0-.505.289l0,0a.91.91,0,0,0,.227,1.1c.6.451,1.17.958,1.725,1.449.175.155.356.315.536.472.245.213.5.427.738.634a20.236,20.236,0,0,1,3.926,4.049,1.235,1.235,0,0,0,.987.418,1.021,1.021,0,0,0,.537-.134,4.007,4.007,0,0,1,2.185-.69h.038l-2.3,1.494a.432.432,0,0,1-.249.089.511.511,0,0,1-.132-.02h0c-.091-.023-.181-.05-.276-.078a3.143,3.143,0,0,0-.907-.17H274.5a33.264,33.264,0,0,0-4.986.481l-.153.025a2.785,2.785,0,0,0-1.01.3.777.777,0,0,0-.377.807.643.643,0,0,0,.538.642c.871.173,1.753.355,2.606.532l.446.092.164.041a6.074,6.074,0,0,0,.918.18c1.333.84,2.4,1.557,3.357,2.255a5.475,5.475,0,0,0,2.372,1.057,8.555,8.555,0,0,1,.843.195l.277.073c.169.044.344.074.514.1a2.052,2.052,0,0,1,.868.271,2.286,2.286,0,0,1,.534.848c.057.125.116.255.18.378a.821.821,0,0,0,.73.531.987.987,0,0,0,.234-.03h0a.234.234,0,0,1,.058-.009h0a.488.488,0,0,1,.07.147c.183.523.373,1.052.556,1.563.231.645.47,1.311.7,1.965l.005.016.007.015a.625.625,0,0,0,.548.438.833.833,0,0,0,.25-.044c1.607-.5,3.345-1.02,5.313-1.6a.542.542,0,0,0,.408-.823Z" transform="translate(-231.33 -5.411)" fill="#c18f69"/>
    </g>
    <path id="Path_343" data-name="Path 343" d="M128.2,220.143l11.736-4.782.194-4.147L142.167,207l.45-4.659,2.294-7.015,2.55-5.868-.194-1.4-.38-1.28.256-1.465-.45-1.721.256-1.209-2.294-2.806-10.209,3.574.45,1.341-.953,1.6.891,2.744-1.4,2.744,1.977,5.93,4.209,2.232c-.194.062-5.356-.45-5.356-.45l1.209,2.488-1.4,3.891-1.659.83-1.4.45-2.744,3.185-2.038,5.03,1.721,4.977ZM85.033,184.918l10.412,1.191,1.341,6.618-2.25,5.347,1.262.917,2.179,6.053,2.541,2.815,1.756,1.059,3.1,2.956,3.591,2.674-1.271,2.744.212,2.038-.424,1.13-.776,2.179-7.527-2.179.212-1.271-1.059-1.4.353-1.341-10.271-7.527-.776-1.906-2.25-.7-.071-16.121-.918-2.321.635-2.956Z" transform="translate(-70.079 -146.576)" fill="#004284"/>
    <path id="Path_344" data-name="Path 344" d="M346.425,328.352Z" transform="translate(-283.901 -267.978)" fill="#885630"/>
    <g id="Group_515" data-name="Group 515" transform="translate(24.177 31.38)">
      <path id="Path_345" data-name="Path 345" d="M181.99,347.249h0c-.067-.062-.131-.127-.2-.191s-.15-.15-.227-.222a.632.632,0,0,0-.664-.157.611.611,0,0,0-.388.529c-.042.32-.055.635-.067.939a6.239,6.239,0,0,1-.126,1.213l-.146.644h.984l.144-.288c.137-.274.274-.55.411-.826s.273-.549.41-.824h0a.7.7,0,0,0-.1-.775Z" transform="translate(-172.414 -314.284)" fill="#63401e"/>
      <path id="Path_346" data-name="Path 346" d="M338.779,327.753l-.181-.079a.913.913,0,0,0-.835.137,1,1,0,0,1-.12.064.763.763,0,0,0-.587.789,20.734,20.734,0,0,0,.253,2.5l.258,1.668.728-1.523a1.9,1.9,0,0,0,.165-.585l.011-.074c.071-.422.143-.836.214-1.25l.1-.6a1.038,1.038,0,0,1,.04-.125.96.96,0,0,0,.034-.745Z" transform="translate(-300.432 -298.759)" fill="#63401e"/>
      <path id="Path_347" data-name="Path 347" d="M177.937,191.927a19.193,19.193,0,0,1,2.516.15l2.049.3-1.661-1.237h0a3.231,3.231,0,0,0-1.529-.592c-.378-.052-.756-.1-1.135-.149a.589.589,0,0,0,.292-.1.883.883,0,0,0,.358-.468l.05-.148-.04-.151q-.024-.091-.044-.183-.025-.112-.053-.223l-.024-.091-1.577-6.644-1.548-1.744c-1.987-4-4.213-4.381-6.864-5.627a.573.573,0,0,0-.089-.036l-.043-.014a3.939,3.939,0,0,0-2.518.12l-.005,0c-.541.191-2.049-1.024-3.364-2.039a12.043,12.043,0,0,0-4.544-2.171,11.365,11.365,0,0,0-5.464.7l-.423.126c-.332.1-.65.219-.937.329a5.053,5.053,0,0,0-.779.418,18.871,18.871,0,0,0-2.988,2.185c-.039.035-.076.071-.112.106a1.189,1.189,0,0,1-.106.1l-.037.029c-.248.191-.453.381-.652.566-.094.087-.187.174-.284.26l-.181.163a27.451,27.451,0,0,0-2.557,3.445,12.332,12.332,0,0,0-1.021,1.8c-.127.288-.988.565-1.153.859a9.977,9.977,0,0,0-.548,1.087l-.086,1.942a45.438,45.438,0,0,1-2.132,4.49,2.927,2.927,0,0,0-.373.886l-.348,1.433s1.867-.96,2.519,3.087l.338,1.349.633-1.238c.062-.121.118-.24.172-.354a3.237,3.237,0,0,1,.345-.619,3.407,3.407,0,0,1,2.178-1.311c.559-.106,1.122-.167,1.717-.231.266-.029.533-.058.8-.091,1.045-.134,2.119-.217,3.158-.3,1.266-.1,2.574-.2,3.86-.393a13.165,13.165,0,0,0,5.5-1.839c.29-.195.586-.381.882-.568a13.43,13.43,0,0,0,2.519-1.884,9.256,9.256,0,0,0,1.916-2.613,4.022,4.022,0,0,0,1.075,3.659c.055.055.11.11.159.15a11.838,11.838,0,0,0,3.315,2.256c.528.223,1.064.449,1.613.654l-.456,1.009,1.868,1.019a3.285,3.285,0,0,0,1.718.544,3.905,3.905,0,0,1,.6.051c.088.012.175.024.262.034h0a9.442,9.442,0,0,0,1.02.054,13.635,13.635,0,0,0,2.053-.171l1.488-.226-1.309-.743a3.564,3.564,0,0,1-.784-1.171l.143,0Z" transform="translate(-137.982 -170.754)" fill="#63401e"/>
    </g>
    <g id="Group_516" data-name="Group 516" transform="translate(11.168 0.307)">
      <path id="Path_348" data-name="Path 348" d="M85.237,182.362h0a1.135,1.135,0,0,0-.794.212,1.7,1.7,0,0,0,.044,2.444,1.05,1.05,0,0,0,1.394,0,1.638,1.638,0,0,0,.353-1.968A.917.917,0,0,0,85.237,182.362Z" transform="translate(-80.878 -149.153)" fill="#1a1a1a"/>
      <path id="Path_349" data-name="Path 349" d="M411.209,153.966h0a1.1,1.1,0,0,0-1.05,1.077.97.97,0,0,0,.935.926,1.127,1.127,0,0,0,.98-1.112C412.056,154.249,411.773,153.957,411.209,153.966Z" transform="translate(-347.077 -125.981)" fill="#1a1a1a"/>
      <path id="Path_353" data-name="Path 353" d="M133.116,34.1a.493.493,0,0,0,.388-.52c.168-2.223.335-4.456.512-6.68.027-.309-.026-.371-.344-.274-1.668.529-3.335,1.032-5.012,1.553-.512.159-.521.159-.75-.344-.847-1.906-1.509-3.883-2.206-5.841a1.443,1.443,0,0,1,.026-1.165,5.508,5.508,0,0,0,.071-2.082.445.445,0,0,1-.018-.106,33.727,33.727,0,0,0-.935-5.691,22.12,22.12,0,0,0-1.835-4.668C122.175,6.7,121.275,5.126,120.3,3.6a3.714,3.714,0,0,0-1.6-1.571,2.579,2.579,0,0,0-.812-.176.744.744,0,0,0-.724.344,1.528,1.528,0,0,0-.256,1.58c.7,1.509,1.332,3.053,1.941,4.6.035.071.08.141.141.247a.249.249,0,0,1-.23-.159,24.7,24.7,0,0,0-3.67-2.956,47.06,47.06,0,0,0-5.524-3.2,2.125,2.125,0,0,0-.785-.238c-.467-.053-.944-.1-1.412-.15a1.067,1.067,0,0,0-1.306,1.076c0,.4-.168.485-.494.512a.994.994,0,0,0-.724.706,2.552,2.552,0,0,0,.838,2.277c1.632,1.527,3.212,3.106,4.791,4.686l.053.026a.353.353,0,0,1,.106.141.219.219,0,0,1-.071.009.211.211,0,0,1-.132-.08c-.009-.009-.017-.017-.017-.026-.23-.132-.468-.256-.688-.406-1.1-.732-2.188-1.482-3.291-2.2a3.468,3.468,0,0,0-1.694-.626,1.667,1.667,0,0,0-1.438.529,1.03,1.03,0,0,0-.326.927,1.632,1.632,0,0,0,.821,1.147,30.039,30.039,0,0,1,5.021,4.315,4.672,4.672,0,0,0,.423.415,4.147,4.147,0,0,1,.962,1.306c.124.221.08.274-.159.274a22.261,22.261,0,0,0-4.579.75,1.67,1.67,0,0,0-1.447,1.032c-.238.768-.353,1.2.591,1.438a35.182,35.182,0,0,1,5.471,1.9,1.746,1.746,0,0,1,.432.282,12.154,12.154,0,0,0,1.332,1.112,14.3,14.3,0,0,0,4.482,2.144c.194.044.371.141.556.185a.432.432,0,0,1,.344.344,1.448,1.448,0,0,0,1.121,1.209c.08.026.141.08.221.106a.527.527,0,0,1,.344.4q.368,1.321.776,2.629c.1.291.009.371-.256.45-1.368.4-2.727.812-4.085,1.226-.485.15-.494.159-.247.6l3.335,6.009c.468.847.485.847,1.341.406.088-.044.212-.194.291-.053s.221.326.088.476a16.41,16.41,0,0,0-1.05,1.544.335.335,0,0,0-.017.433q.559.918,1.1,1.844c.044.071.124.159.106.212-.141.45-.3.9-.45,1.35a9.329,9.329,0,0,0-1.165-2.629,36.976,36.976,0,0,0-2.277-2.983c-.124-.15-.265-.282-.406-.423a11.929,11.929,0,0,0-2.568-1.756,3.763,3.763,0,0,0-1.253-.468,8.017,8.017,0,0,0-4.112.018.459.459,0,0,1-.6-.221,6.441,6.441,0,0,0-1.059-1.368,12.057,12.057,0,0,0-3.627-2.144,10.839,10.839,0,0,0-3.177-.618,15.729,15.729,0,0,0-1.7.062,8.95,8.95,0,0,0-4.191,1.076c-.256.159-.547.247-.812.4a15.971,15.971,0,0,0-3.733,2.5c-1.138,1.121-2.277,2.241-3.3,3.468A22.413,22.413,0,0,0,83,44.515a.587.587,0,0,1-.256.353c-.15-.935-.3-1.835-.441-2.735-.026-.168.079-.159.194-.141.326.035.644.053.971.1.247.035.38-.018.441-.291.079-.38.168-.759.247-1.147.3-1.456.732-2.868,1.112-4.3.071-.274.026-.371-.256-.441-1.4-.335-2.806-.706-4.209-1.041-.265-.062-.388-.159-.309-.441a33.3,33.3,0,0,1,.891-3.309.653.653,0,0,1,.2-.318,1.25,1.25,0,0,0,.591-1.112.746.746,0,0,1,.512-.785c.671-.318,1.315-.688,1.95-1.059a3.089,3.089,0,0,0,1.2-1.226,68.094,68.094,0,0,1,3.6-6.653,3.966,3.966,0,0,1,.371-.547,34.63,34.63,0,0,1,2.833-2.868,1.306,1.306,0,0,0,.424-1.05,1.711,1.711,0,0,0-.556-1.121,1.145,1.145,0,0,0-1.023-.538,1.476,1.476,0,0,1-.327-.053c.071-.141.185-.176.282-.238q1.869-1.2,3.733-2.418c1.509-.971,3.009-1.95,4.527-2.921.194-.124.282-.22.07-.406a1.161,1.161,0,0,1-.132-.159c-.309-.362-.309-.362-.732-.106q-6.327,3.931-12.653,7.871c-.371.23-.371.23-.556-.185a29.168,29.168,0,0,1-.962-2.973.406.406,0,0,1,.168-.5c1.059-.847,2.029-1.8,3.009-2.727A2.222,2.222,0,0,0,88.6,7.667c.08-.626-.335-.953-.9-.724a6.281,6.281,0,0,0-.812.388,38.325,38.325,0,0,1-7.9,3.115c-.159.044-.3.1-.432-.071a4.859,4.859,0,0,0-1.024-.768.266.266,0,0,0-.229-.053,1.557,1.557,0,0,0-.98.538c-.582.856-1.315,1.615-1.862,2.506-.626,1.032-1.227,2.065-1.932,3.044-.132.185-.185.212-.309-.009-.776-1.368-1.562-2.735-2.338-4.1a10.46,10.46,0,0,0-.821-1.244,1.391,1.391,0,0,0-1.315-.582c-.1.009-.221-.017-.256.132a4.023,4.023,0,0,0-.212,1.218,24.041,24.041,0,0,0,.547,2.965c.423,1.685.9,3.353,1.4,5.012.485,1.632,1.032,3.238,1.562,4.862.044.141.124.265-.071.38-.247.141-.644.212-.688.459s.185.556.291.83c.009.018.018.044.026.062.088.212.132.529.291.609.212.106.406-.185.6-.3.176-.106.238-.079.318.106.459,1.077.926,2.144,1.394,3.221a.663.663,0,0,1,.026.5,15.211,15.211,0,0,0-.706,2.647c-.044.256-.141.256-.335.2q-1.529-.394-3.062-.776c-.45-.115-.45-.115-.5.344v.035q-.329,3.667-.671,7.333c-.017.221.009.309.247.335.715.088,1.421.2,2.127.309.132.018.247.026.212.221-.159.83-.282,1.668-.459,2.488a.655.655,0,0,0,.124.6c.247.318.485.644.732.971a.7.7,0,0,1,.141.768.738.738,0,0,0-.124.432c.026,1.527.026,3.053.1,4.58.035.741.026,1.482.044,2.223.035,1.968.15,3.926.221,5.894.035.962-.132,1.915-.088,2.877.009.238.062.371.309.45.582.185,1.147.424,1.738.609a1.03,1.03,0,0,1,.679.574,1.6,1.6,0,0,1,.141.8.608.608,0,0,0,.3.574c.909.653,1.809,1.323,2.718,1.994,2.391,1.765,4.783,3.538,7.183,5.294.221.168.274.3.141.538s-.2.494-.326.724a.331.331,0,0,0,.114.494,10.865,10.865,0,0,1,.865.688.723.723,0,0,1,.176.768c-.053.176-.318.018-.485,0-.114-.009-.229-.035-.344-.053-1.138-.185-2.268-.476-3.424-.574a50.633,50.633,0,0,0-5.55-.256c-.1,0-.247-.088-.274.106-.026.159-.062.326.115.432a1.639,1.639,0,0,0,.282.132A17.622,17.622,0,0,1,78.3,75.973a11.817,11.817,0,0,0,1.906.988c.124.044.247.141.4.009q-1.534-1.218-3.062-2.444a.427.427,0,0,1,.362-.053,23.936,23.936,0,0,1,3.635.547q3.93.941,7.8,2.109a8.77,8.77,0,0,1,2.506.891.483.483,0,0,1,.274.477c.044.053.1.123.035.168s-.132-.044-.185-.088c-.6-.053-1.2-.1-1.791-.159a39.619,39.619,0,0,0-5.118-.353c-1.288.035-2.577-.053-3.856.035-1.818.124-3.635.361-5.444.556-.088.009-.23-.009-.23.1a.294.294,0,0,0,.221.318,2.133,2.133,0,0,0,.415.044c.917.035,1.827.026,2.744.044,2.277.053,4.562-.044,6.838.15.821.071,1.65.035,2.453.185,3.785.706,7.553,1.447,11.312,2.268a5.625,5.625,0,0,1,1.323.38c-.2.185-.467.238-.582.5-.8,1.862-1.332,3.821-1.95,5.744a.65.65,0,0,0,.441.794,1.021,1.021,0,0,0,1.3-.812c.071-.4.141-.794.194-1.2a.255.255,0,0,1,.194-.247c.485-.194.962-.4,1.447-.591a5.94,5.94,0,0,0,1.941-1.191,2.432,2.432,0,0,0,.917-1.73.538.538,0,0,1,.23-.494,20.743,20.743,0,0,0,2.241-2.074,22.145,22.145,0,0,1,2.206-1.959c.088-.071.159-.176.3-.124.662.265,1.315.521,2.056.812-1.376.838-2.682,1.641-3.979,2.427a.86.86,0,0,1-.194.07,2.992,2.992,0,0,0-1.244.741,6.35,6.35,0,0,0-2,4.959c.053,1.323.812,1.95,2.1,1.65a6.274,6.274,0,0,0,4.527-5.065,2.234,2.234,0,0,0-.282-1.888,8.305,8.305,0,0,0-.653-.715c.07-.044.106-.071.141-.1a48.262,48.262,0,0,1,9.1-3.935c3.821-1.315,7.721-2.365,11.63-3.371-.088-.017-.185-.044-.274-.062-.256.026-.5.053-.759.071a18.745,18.745,0,0,0-3.2.494.4.4,0,0,1-.062.026.833.833,0,0,1-.344.053,1.3,1.3,0,0,0-.176.009c.238-.23.926-.971,1.112-.918l.009-.018h.017c0-.026.071-.079.071-.079a.337.337,0,0,1,.274-.185,2.554,2.554,0,0,1,.724-.688,4.184,4.184,0,0,1,.591-.318h-.009c.59,0,1.172-.713,1.789-.96-.006-.022-.035-.039-.051-.063a12,12,0,0,0-2.594.582c-1.809.671-3.68,1.191-5.444,1.968-2.727,1.191-5.444,2.382-8.065,3.8a3.108,3.108,0,0,1-.282.132c-.071-.635-.132-1.244-.2-1.853-.018-.124.044-.176.15-.23,2.321-1.227,4.65-2.444,7.077-3.45,1.994-.83,3.97-1.729,5.974-2.542.009-.017.018-.035.035-.035h.017c.009,0,.009.009.018.009a.069.069,0,0,1-.018.1c-.009.009-.017.009-.035.018h-.009a12.341,12.341,0,0,0-1.367,2.427.217.217,0,0,0,.247-.062c.415-.441.83-.873,1.236-1.315a15.224,15.224,0,0,1,2.586-2.356c.061-.044.168-.079.123-.176s-.168-.053-.247-.035c-.909.185-1.818.353-2.718.565-.3.071-.282-.035-.291-.247-.009-.724.1-1.429.124-2.153a2.324,2.324,0,0,1,.212-.909c.361-.83.724-1.65,1.094-2.479a5.175,5.175,0,0,0,.362-1.3c.115-.706.2-1.421.274-2.135.115-1.094.5-2.127.688-3.212a20.872,20.872,0,0,1,.944-4.077c.459-1.165.9-2.329,1.368-3.485a31.252,31.252,0,0,0,1.853-4.739,2.461,2.461,0,0,0,.017-1.686,7.278,7.278,0,0,1-.3-1,1.442,1.442,0,0,1-.044-.75,3.62,3.62,0,0,0-.229-2.629c-.132-.23.026-.371.159-.512.326-.335.344-.485.061-.847-.326-.406-.644-.821-1-1.2-.291-.309-.565-.644-.856-.962-.2-.123-.185-.2.044-.282h0C132.093,34.483,132.6,34.262,133.116,34.1ZM109.4,84.54a4.62,4.62,0,0,1-1.562,3.009h0a2.064,2.064,0,0,1-1.191.5.77.77,0,0,1-.909-.838,5.52,5.52,0,0,1,1.218-3.221,1.648,1.648,0,0,1,1.9-.441C109.266,83.72,109.407,83.922,109.4,84.54Zm10.28-57.981h0c-.088-.247-.194-.38-.467-.318-.327.079-.5-.062-.644-.353a3.663,3.663,0,0,0-.794-1.323,4.092,4.092,0,0,0-1.482-.424c-.38-.1-.759-.212-1.147-.274a5.248,5.248,0,0,1-2.25-1.006c-1.112-.821-2.259-1.58-3.433-2.3a6.862,6.862,0,0,1-1.112-.221c-1.024-.212-2.038-.432-3.062-.626-.247-.044-.291-.229-.309-.4a.5.5,0,0,1,.238-.53,2.951,2.951,0,0,1,1.068-.291,35.594,35.594,0,0,1,4.941-.476,4.219,4.219,0,0,1,1.147.238.661.661,0,0,0,.609-.106c.794-.529,1.6-1.032,2.391-1.553.123-.079.353-.132.256-.344a.315.315,0,0,0-.053-.08.241.241,0,0,0-.159-.044c-.062,0-.124.009-.185.009H115.2a4.262,4.262,0,0,0-2.453.732,1.036,1.036,0,0,1-1.138-.2,24.71,24.71,0,0,0-4.712-4.739c-.75-.653-1.482-1.332-2.277-1.932a.606.606,0,0,1-.159-.724c.176-.265.406-.15.618-.053a10.951,10.951,0,0,1,1.941,1.077,72.217,72.217,0,0,0,6.512,3.988,1.882,1.882,0,0,0,.185.1c.335.115.512-.035.459-.388a.979.979,0,0,0-.23-.494c-1.791-2.109-3.68-4.13-5.532-6.186a16.185,16.185,0,0,0-1.28-1.173,3.143,3.143,0,0,1-.812-1.024.588.588,0,0,1,.089-.7.354.354,0,0,1,.5-.088,10.1,10.1,0,0,1,1.773,1.077q1.469,1.112,2.956,2.223c.988.741,1.977,1.473,2.964,2.215.08.062.159.124.23.185.185.168.344.344.521.521l.106.106a1.305,1.305,0,0,0,.221.221c.2.124.415.23.626.018a.347.347,0,0,0,.115-.2.246.246,0,0,0,0-.08.052.052,0,0,0-.009-.035.632.632,0,0,0-.159-.265l-.662-.688c-.371-.38-.741-.75-1.147-1.094-1.28-1.068-2.594-2.1-3.918-3.106a20.062,20.062,0,0,0-2.188-1.28,2.675,2.675,0,0,1-.635-.582.53.53,0,0,1-.088-.556c.08-.194.274-.185.441-.2a1.339,1.339,0,0,1,.732.185c1.7.838,3.379,1.738,5,2.709.132.079.265.159.4.247.909.582,1.773,1.244,2.629,1.915a7.269,7.269,0,0,1,1.041,1.209c.141.176.044.335-.088.459a1.487,1.487,0,0,1-.318.2c-.115.079-.265.15-.221.318.035.15.2.185.335.212a1.007,1.007,0,0,0,.582-.053c.617-.256,1.138.176,1.535.609.106.115.15.344.344.274s.23-.3.212-.5a11.286,11.286,0,0,0-.309-1.632,25.511,25.511,0,0,0-1.535-3.944c-.194-.468-.406-.935-.6-1.4a.672.672,0,0,1,.176-.671c.115-.15.3-.018.45.053a2.448,2.448,0,0,1,1.147,1.218c.291.556.653,1.068.962,1.606a30.63,30.63,0,0,1,1.606,2.8,27.114,27.114,0,0,1,1.773,4.324,35.726,35.726,0,0,1,.926,4.094c.062.529-.035,1.041.026,1.553a5.389,5.389,0,0,1-.45,2.929.874.874,0,0,0,.044.768c.926,1.959,1.694,3.98,2.462,6.009.1.265.053.371-.221.45-1.773.521-3.547,1.059-5.321,1.6-.256.08-.335.009-.415-.221Q120.308,28.344,119.677,26.559ZM108.542,37.747h0a3.5,3.5,0,0,1,2.206-.115c.017.009.035.009.053.018a20.175,20.175,0,0,1,2.833.953,1.03,1.03,0,0,1,.415.282,7.451,7.451,0,0,1,1.579,1.491c.7.9,1.394,1.809,2.047,2.841-.041-.014-.081-.031-.122-.047l0-.005a3.741,3.741,0,0,1-.676-.38,23.688,23.688,0,0,0-2.48-1.306,5.4,5.4,0,0,0-1.218-.371,12.155,12.155,0,0,0-3.344-.15c-.309.026-.626,0-.935,0a.292.292,0,0,1-.335-.335,8.442,8.442,0,0,0-.22-2.577C108.286,37.871,108.392,37.8,108.542,37.747Zm-.225,6.364h0a.605.605,0,0,1,.026-.071c.009-.018.009-.035.018-.053a.56.56,0,0,0,.018-.062c.009-.018.009-.035.017-.053s.009-.044.018-.062.009-.035.009-.053.009-.044.009-.062.009-.035.009-.053.009-.044.009-.062.009-.035.009-.053.009-.044.009-.062.009-.035.009-.053.009-.044.009-.062a.112.112,0,0,1,.009-.053.149.149,0,0,1,.009-.061v-.98c-.009-.3.1-.415.4-.406s.6,0,.894-.016l.275.014q.225-.015.45-.018a8.176,8.176,0,0,1,1.4.088,3.7,3.7,0,0,1,2.021.6,10.237,10.237,0,0,1,1.024.529c.812.486,1.624.988,2.435,1.483a1.432,1.432,0,0,1,.432.4c.265.38.547.768.821,1.156.044.062.114.132.053.212a.136.136,0,0,1-.071.053h0a.263.263,0,0,1-.186-.045c-.361-.2-.732-.4-1.094-.6a17.5,17.5,0,0,0-3.988-1.588l-.365-.1a7.384,7.384,0,0,0-1.188-.281l-.556-.124c-.018.009.017.044.062.088a.236.236,0,0,1,.044.053.511.511,0,0,0,.15.123.32.32,0,0,1,.071.035c.838.424,2.25.688,3.283,1.165l-.018-.009-.053-.026.043.019.01.007c.08.035.159.08.23.115a11.392,11.392,0,0,1,1.615,1.068l.988.759a7.31,7.31,0,0,1,2.833,4.3c.009.053.026.106.035.159l.035.053a.46.46,0,0,1,.062.353c.009.026.009.053.017.079-.017.256-.221.15-.335.15a9.187,9.187,0,0,1-2.241-.406l-.023,0c-.189-.055-.433-.141-.607-.2-.776-.274-1.509-.6-2.259-.873a10.23,10.23,0,0,1-2.435-1.518,28.574,28.574,0,0,1-3.68-3,1.247,1.247,0,0,1-.291-.388q-.121-.28-.23-.565l-.132-.344c-.027-.07-.053-.141-.089-.221,0-.009,0-.009-.009-.017a.053.053,0,0,1-.009-.035v-.009c0-.009-.009-.026-.009-.035A.622.622,0,0,1,108.317,44.112Zm6.112.762c-.024-.011-.046-.019-.072-.032C114.383,44.855,114.4,44.863,114.429,44.874Zm-.857-.332c-.023-.006-.047-.015-.071-.024A.709.709,0,0,0,113.571,44.542Zm-1.9-.724c-.043.026-.105.015-.121.069h0c-.014-.069-.006-.1.014-.1a.4.4,0,0,0,.1.03Zm-4.015,1.994h0c.025-.084.075-.127.125-.116l.008.01c.026.009.053.035.08.088a5.647,5.647,0,0,0,1.1,1.465c.459.441.953.847,1.429,1.28q1.483,1.335,3.009,2.62a5.562,5.562,0,0,0,2.277,1.059,51.678,51.678,0,0,0,5.788.936,2.648,2.648,0,0,1,1.376.573h-.026a.767.767,0,0,1,.088.071,26.851,26.851,0,0,0-3.256-.168,26.173,26.173,0,0,0-3.529.247,3.627,3.627,0,0,1-1.236-.1,19.713,19.713,0,0,1-3.265-1.165,11.34,11.34,0,0,1-3.168-2.162c-.071-.071-.141-.132-.212-.2a3.683,3.683,0,0,1-.745-1.031L107.5,49.2l-.009-.021a3.939,3.939,0,0,1-.059-2.6C107.5,46.324,107.58,46.068,107.659,45.812Zm10.218,18.971a1.63,1.63,0,0,1-.176.609l-.026-.159a.847.847,0,0,1-.044.088,19.487,19.487,0,0,1-.274-2.594c-.009-.194.124-.238.247-.282.2-.071.459-.3.591-.194a.232.232,0,0,1,.044.053c.009.009.018.009.026.018.159.124-.026.406-.071.618h0C118.08,63.557,117.983,64.166,117.878,64.783Zm-.644-3.5H117c-.141,0-.282.035-.424.044a.315.315,0,0,0-.318.212c-.062.141-.141.265-.212.406a.448.448,0,0,0-.026.061,5.64,5.64,0,0,1-1.165,1.765c-.106.115-.221.221-.335.326q-.441.4-.918.75a7.171,7.171,0,0,1-1.721.821l-.132.053q-.063.024-.124.053c-.026.009-.044.017-.071.026s-.079.026-.115.035c-.132.053-.238.132-.168.336a.41.41,0,0,0,.433.291.906.906,0,0,0,.15-.009,2.24,2.24,0,0,0,.547-.123c.176-.062.353-.141.538-.221.124-.053.247-.106.38-.15a11.362,11.362,0,0,1-.309,1.253c-.027.07-.053.132-.08.194q-.158.355-.326.706-.107.233-.23.459a13.858,13.858,0,0,1-1.491,2.409q-.179.23-.38.441a6.23,6.23,0,0,1-.926.812q-.187.135-.38.265-.378.235-.768.45c-.212.115-.415.212-.626.309l-.238.106c-.062.026-.132.053-.194.08s-.106.044-.159.062c-.15.061-.3.114-.45.168a.666.666,0,0,1-.141.044q-.236.081-.476.15-.741.222-1.5.38c-.194.044-.4.08-.6.115-.026,0-.044.009-.07.009-.2.035-.4.062-.6.1s-.424.062-.644.088a7.936,7.936,0,0,1-2.144-.062.261.261,0,0,1-.08-.018l-.106-.026a2.492,2.492,0,0,1-.53-.221c-.23-.123-.441-.256-.67-.371q-.244-.122-.477-.265a6.868,6.868,0,0,1-.591-.388,2.321,2.321,0,0,1-.856-1.024,6.644,6.644,0,0,0-.335-.715c-.035-.071-.079-.132-.115-.194a9.975,9.975,0,0,0-1.015-1.35c-.15-.176-.3-.353-.459-.521-.08-.088-.15-.176-.23-.256q-.463-.52-.953-1.015l-.247-.247a10.258,10.258,0,0,0-1.059-.909,3.164,3.164,0,0,0-.282-.2A10.239,10.239,0,0,0,91.7,66.2q-.112-.063-.221-.132c-.071-.044-.15-.1-.221-.141a5.8,5.8,0,0,1-2.276-2.727.486.486,0,0,0-.038-.077.766.766,0,0,0-.808-.455,2.31,2.31,0,0,1-.927-.176h0l-.01-.007a1.684,1.684,0,0,1-.485-.309l-.093-.059a3.109,3.109,0,0,1-.216-.33,19.471,19.471,0,0,1-1.418-2.42l.01.031-.02-.05.009.019q-.124-.364-.268-.721c-.046-.11-.092-.214-.131-.313a1.4,1.4,0,0,1-.063-.384,1.265,1.265,0,0,1,.009-.185c.009-.035.018-.08.027-.115.009-.018.009-.035.018-.053a.535.535,0,0,1,.044-.106,1.7,1.7,0,0,1,.467-.521c.08-.062.159-.124.247-.185.168-.123.344-.229.512-.344q.394-.238.8-.45A15.118,15.118,0,0,1,89.8,54.83c.062-.017.123-.026.194-.044.124-.026.256-.035.388-.053s.259-.016.388-.017.265-.009.388-.009a1.432,1.432,0,0,0,.194-.009c.441-.018.882-.044,1.323-.071q.993-.066,1.985-.159c.662-.062,1.323-.132,1.985-.2a12.875,12.875,0,0,0,3.459-.882c.23-.1.459-.2.68-.309.132-.071.274-.132.406-.2.079-.044.15-.08.23-.124.529-.282,1.059-.556,1.571-.856a.346.346,0,0,1,.2-.123c.009,0,.026-.009.035-.009V51.8a.218.218,0,0,1-.071.124l-.079.053a14.076,14.076,0,0,1-1.827,1.65c-.062.053-.124.106-.185.168-.194.159-.388.326-.609.5a7.768,7.768,0,0,0,2.2-.291,6.08,6.08,0,0,0,2.683-1.606,6.764,6.764,0,0,0,.512-.6,8.908,8.908,0,0,0,1.024-1.773,6.152,6.152,0,0,0,1.376,2.109c.035.044.071.1.106.141s.071.1.106.141a.877.877,0,0,0,.221.221c.053.044.115.088.168.124s.115.079.168.123c.026.018.053.044.08.062q.578.457,1.173.891c.265.194.53.38.8.565.406.282.812.556,1.209.838a11.825,11.825,0,0,0,1.721.979c.15.071.3.132.45.2q.685.289,1.394.512l.08.026a6.184,6.184,0,0,0,.917.141c.115.009.23.026.335.035a.716.716,0,0,1,.221.088,1.523,1.523,0,0,1,.247.185,1.67,1.67,0,0,1,.547.812.274.274,0,0,1-.009.088c-.009.017-.009.026-.018.035-.035.062-.088.115-.123.176-.106.185-.221.371-.309.565-.018.035-.026.062-.044.1a1.144,1.144,0,0,0,.009.962,5.977,5.977,0,0,0,1.076-1.385,3.826,3.826,0,0,0,.2-.433c.044-.1.079-.2.115-.309s.009-.212.035-.309-.088-.256-.035-.327c0-.009.009-.009.017-.017a.141.141,0,0,1,.053-.026.467.467,0,0,1,.1-.017,1.566,1.566,0,0,1,.2-.018,1.689,1.689,0,0,1,.512.079c.106.035.07.168.062.265v.017a2.809,2.809,0,0,1-.265.891,2.009,2.009,0,0,1-.088.2,6.147,6.147,0,0,1-.706,1.376A2.3,2.3,0,0,1,117.233,61.28ZM105.145,76.034h0a6.442,6.442,0,0,1-1.006.08A4.492,4.492,0,0,1,103.115,76a.275.275,0,0,1-.238-.318c.009-.1.08-.1.15-.1a.381.381,0,0,1,.141.009h.662c.1.009.194.009.3.009a4.194,4.194,0,0,0,.873-.088.447.447,0,0,1,.15-.009c.114-.009.2.017.212.194C105.365,75.857,105.4,76,105.145,76.034ZM88.7,68.119h0a20.473,20.473,0,0,0,.2-2.206c.018-.15.1-.132.185-.053.141.132.273.273.414.405h0l.053.053a.177.177,0,0,1,.044.221q-.408.826-.821,1.65l-.088-.026C88.689,68.145,88.7,68.137,88.7,68.119Zm28.4-12.23h0a6.572,6.572,0,0,0-.935-.088,3.338,3.338,0,0,1-1.659-.591h.062c-.044-.026-.088-.044-.132-.071.088.009.185.009.274.018.106.009.2.035.309.053a8.238,8.238,0,0,0,2.586-.159,3.892,3.892,0,0,1,2.409.653.079.079,0,0,0-.044.009c.035.017.071.044.115.061A11.663,11.663,0,0,1,117.1,55.889ZM84.056,44.612a17,17,0,0,1,.962-1.6c.176-.256.353-.512.538-.759.088-.124.185-.247.282-.371q.424-.556.873-1.085c.3-.353.6-.706.909-1.059s.618-.7.917-1.05a3.385,3.385,0,0,1,.424-.362l.094-.109c.29-.249.541-.507.876-.773l.044-.035c.079-.071.159-.15.247-.23a18.91,18.91,0,0,1,2.929-2.144c.1-.068.209-.129.316-.187q.2-.091.408-.175a.544.544,0,0,1,.106-.044q.313-.131.635-.238c.141-.044.291-.088.432-.132.512-.15,1.024-.273,1.527-.432a9.131,9.131,0,0,1,2.877-.424c.141,0,.274.009.415.009a6.056,6.056,0,0,1,2.091.609c.291.132.582.256.873.4l.212.106c.212.106.433.212.635.335.141.079.274.159.415.238s.274.168.4.265a7.143,7.143,0,0,1,.759.609,6.1,6.1,0,0,1,1.7,2.647,10.072,10.072,0,0,1,.477,2.268,6.383,6.383,0,0,1-.353,2.179c-.026.106-.071.132-.106.124-.053-.018-.08-.08-.124-.132-.265-.309-.53-.609-.794-.917a7.738,7.738,0,0,0-3.829-2.515,15.294,15.294,0,0,0-3.653-.565,14.071,14.071,0,0,0-2.956.335c-.776.15-1.553.274-2.321.415a6.229,6.229,0,0,0-1.421.52c-.219.1-.438.194-.664.278l-.068.016a18.278,18.278,0,0,0-3.768,2.1,5.9,5.9,0,0,0-.892.8l-.034.031-.238.238c-.556.538-1.1,1.086-1.7,1.58a7.973,7.973,0,0,1-.988.979A5.185,5.185,0,0,1,84.056,44.612ZM83.81,48.15h0a1.05,1.05,0,0,1,.15-.194,44.537,44.537,0,0,1,3.759-3.547,18.614,18.614,0,0,1,7.553-3.75,9.843,9.843,0,0,1,2.1-.256c.812-.009,1.624-.035,2.427-.062a7.582,7.582,0,0,1,4.289,1.191,7.456,7.456,0,0,1,1.333,1.045l.05.05a7.9,7.9,0,0,1,1.182,1.509,2.051,2.051,0,0,1,.114,1.518,6.952,6.952,0,0,1-2.179,3.626,19.5,19.5,0,0,1-3.318,2.383,12.513,12.513,0,0,1-5.286,1.756c-2.321.344-4.676.38-7.006.688-.847.106-1.7.176-2.55.327a3.934,3.934,0,0,0-2.5,1.509,8.541,8.541,0,0,0-.591,1.112.711.711,0,0,1-.035-.132,1.937,1.937,0,0,1,.132-1.315A4.12,4.12,0,0,1,85.4,53.622a21.241,21.241,0,0,1,4.862-1.376c1.324-.335,2.683-.529,4-.891A26.583,26.583,0,0,0,99.5,49.334a6.3,6.3,0,0,0,2.409-1.782,2.681,2.681,0,0,0,.441-2.047c-.018-.124-.053-.185-.1-.194s-.106.026-.185.1a18.21,18.21,0,0,1-2.1,1.65A12.248,12.248,0,0,1,96.154,48.6a38.543,38.543,0,0,1-6.485,1.138,17.8,17.8,0,0,0-4.553.891,9.437,9.437,0,0,0-3.529,1.8,5.953,5.953,0,0,1-.476.361c.009-.053.018-.1.026-.141l-.1.07,0-.018a.521.521,0,0,1,.086-.062,2.2,2.2,0,0,1,.309-.732Q82.614,50.029,83.81,48.15Zm8.8,2.321,1.924-.318.335-.062a4.579,4.579,0,0,1-1.262.4c-2.056.511-4.156.812-6.238,1.2a9.568,9.568,0,0,0-4.059,1.791,2.093,2.093,0,0,1-.229.159c-.1.062-.141.044-.159-.035a.176.176,0,0,1-.009-.071.875.875,0,0,1,.609-1.006c.662-.3,1.323-.618,1.985-.926a8.5,8.5,0,0,1,2.727-.618C89.695,50.824,91.15,50.639,92.615,50.471Zm-7.606-34.5c.035.1.044.176-.062.238-.318.194-.626.388-.944.582a1.571,1.571,0,0,1-.168.071,1.146,1.146,0,0,0-.115-.185L81.735,14.4c-.088-.106-.176-.2,0-.3.653-.371,1.147-.971,1.835-1.288.176-.08.238-.088.326.106C84.338,13.906,84.638,14.956,85.009,15.97Zm-5.382-4.642h0c.935-.335,1.853-.715,2.779-1.085a37.984,37.984,0,0,0,3.821-1.959c.132-.071.256-.159.388-.23.115-.053.212-.212.362-.132.176.1.114.282.114.494.044.22-.1.406-.3.591-1.271,1.182-2.594,2.3-3.953,3.388a11.387,11.387,0,0,1-1.8.962c-.123.061-.194,0-.265-.088-.441-.565-.873-1.138-1.315-1.7C79.291,11.364,79.52,11.373,79.626,11.329Zm-8,12.071c-1.006-3.115-2.065-6.212-2.9-9.38-.194-.732-.274-1.5-.415-2.25-.044-.221.106-.335.247-.415.194-.1.2.132.274.221a56.582,56.582,0,0,1,3.459,6.132c.335.618.715,1.218,1.077,1.827.07.115.123.212.3.15.194-.071.159-.194.124-.335a12.221,12.221,0,0,0-.706-1.809.662.662,0,0,1,.009-.591C73.591,15.908,74.3,15,74.853,14c.511-.909,1.165-1.721,1.659-2.638a.762.762,0,0,1,1.227-.176,3.8,3.8,0,0,1,.662.838,15.06,15.06,0,0,0,2.373,2.709c.6.6,1.209,1.182,1.844,1.73a1.913,1.913,0,0,1,.362.706.142.142,0,0,1-.07.2.637.637,0,0,0-.115.071,1.31,1.31,0,0,1-1.624.071,11.7,11.7,0,0,1-3.177-2.373.979.979,0,0,0-.106-.088c-.424-.318-.441-.3-.626.185s-.318,1.006-.538,1.482c-.08.168.044.344.168.468.141.141.238.362.494.326a.225.225,0,0,0,.2-.2c.062-.291.141-.582.221-.944A33.135,33.135,0,0,0,80.9,18.512l-1.024.582c-2.621,1.474-5.25,2.947-7.862,4.43C71.8,23.638,71.711,23.665,71.623,23.4Zm.917,2.047c-.1-.2-.062-.291.124-.406q4.755-2.939,9.495-5.9c.168-.106.326-.044.485-.08a4.839,4.839,0,0,0,1.58-.6c.035-.026.1-.044.115-.08a3.1,3.1,0,0,1,1.8-1.359,22.561,22.561,0,0,0,4.368-2.329.675.675,0,0,1,.865.026.773.773,0,0,1,.291.8,2.045,2.045,0,0,1-.591,1.068A20.307,20.307,0,0,0,87.833,20.6a30.311,30.311,0,0,0-2.294,4.077,2.819,2.819,0,0,1-.538.759,9.44,9.44,0,0,1-3.141,2.347.627.627,0,0,0-.4.582c-.018.221-.088.432-.106.653a1.764,1.764,0,0,1-.7,1.4.833.833,0,0,0-.221.459l-1.006,3.362a.174.174,0,0,1-.009.071c0,.053.009.115-.062.141a.574.574,0,0,1-.415-.08c-1.641-.38-3.265-.794-4.888-1.226-.2-.044-.4-.106-.609-.132-.326-.044-.353-.194-.2-.441a7.291,7.291,0,0,1,1.094-2.929.451.451,0,0,0,.009-.565C73.652,27.918,73.123,26.665,72.541,25.447ZM69.126,38.9h0c-.044-.007-.089-.016-.132-.026-.159-.044-.212-.141-.185-.362q.291-2.621.565-5.25c.009-.044.009-.079.018-.114a.125.125,0,0,0,.018-.053.143.143,0,0,1,.141-.07.493.493,0,0,1,.141.026c2.373.626,4.738,1.253,7.112,1.879s4.747,1.244,7.121,1.871c.23.062.3.132.221.371l-1.023,3.353c-.035.132-.062.274-.212.274a.22.22,0,0,1-.071-.009c-1.271-.176-2.541-.344-3.812-.521l-2.48-.344C74.085,39.574,71.605,39.239,69.126,38.9Zm1.95,3.389h0a.431.431,0,0,1,0-.318,1.1,1.1,0,0,1,.061-.15c.009.018.009.035.018.053A1.022,1.022,0,0,1,71.076,42.292ZM92.871,75.231h0v-.009c-.088.009-.1.061-.141.088a.472.472,0,0,1-.071.053,1.39,1.39,0,0,1-.141.1.706.706,0,0,0-.282.318c0,.026,0,.017-.009.035s0,.053-.009.053h.026v.053c-.088.256-.132.441-.176.574-.009.035-.026.062-.035.088a.382.382,0,0,1-.035.062.188.188,0,0,1-.035.044.166.166,0,0,1-.088.044h-.026a.609.609,0,0,1-.185-.044c-.124-.044-.282-.106-.5-.176-.017-.009-.035-.009-.044-.017a.092.092,0,0,0-.044-.018c-.035-.018-.062-.026-.1-.044h-.035V76.4H90.93c-.265-.088-.511-.141-.75-.238-.141-.053-.291-.1-.441-.159a2.529,2.529,0,0,0-.556-.132c-.512-.176-1.032-.265-1.527-.441a.911.911,0,0,1-.159,0v.009c-.353-.071-.635-.159-.971-.221a.431.431,0,0,1-.415-.547,3.4,3.4,0,0,0,.009-.424c0-.044-.009-.062-.009-.15-.053-.088-.132-.194-.2-.309a.5.5,0,0,1-.053-.1c-.044-.044-.132-.088-.132-.141-.088-.018-.053-.035-.079-.053-.274-.256-.194-.6-.159-.927,0-.035.009-.07.009-.106.009-.07.018-.141.026-.2.009-.035.009-.071.017-.1.141-.547.176-1.068-.415-1.394-.071-.044-.115-.088-.2-.15v.018c-.265-.212-.556-.432-.829-.609-.044-.088-.053-.106-.141-.141a5.212,5.212,0,0,1-1.138-.838c-.088-.053-.185-.1-.274-.15h.035c-.053-.088-.115-.079-.159-.123a2.428,2.428,0,0,0-.221-.141c-.441-.38-1.041-.732-1.518-1.165a1.319,1.319,0,0,1-.406-.291v-.017c-.467-.326-.926-.644-1.385-1h.009c-.053,0-.053-.044-.141-.088a5.052,5.052,0,0,1-.759-.529.228.228,0,0,0-.212-.088c-.212-.176-.4-.256-.574-.415-.071-.044-.132-.1-.221-.15a8,8,0,0,1-1.456-1.059l-.044-.044c-.026-.026-.053-.061-.079-.088a.7.7,0,0,1-.1-.159.674.674,0,0,1-.044-.141v.071a11.532,11.532,0,0,1-.794-1.1l-.026-.053a.125.125,0,0,1-.018-.053.4.4,0,0,1-.009-.1.428.428,0,0,1,.088-.194c0-.018.009-.044.009-.071a7.277,7.277,0,0,1,.618-1.606v-.132a.686.686,0,0,0-.009-.115.36.36,0,0,0-.018-.053l-.018-.018a.137.137,0,0,0-.061-.035H75a.452.452,0,0,0-.212.079,1.154,1.154,0,0,0-.2.159c-.026.018-.044.035-.07.053a.478.478,0,0,0-.053.071c-.009.009-.018.027-.027.035s-.009,0-.009,0-.009,0-.009,0v.009a5.345,5.345,0,0,1-.671.565c-.044.044-.123.1-.123.141v-.009H73.6a.2.2,0,0,1-.265.044c-.38-.168-.759-.326-1.138-.5a.316.316,0,0,1-.15-.23c-.01-.038-.018-.076-.026-.115s-.018-.062-.026-.1v.018a3.454,3.454,0,0,1,.194-1.606.7.7,0,0,0,.017-.132,13.052,13.052,0,0,1,.274-1.553v-.23h0c-.081-.564-.082-1.121-.125-1.686,0-.1.009-.194.009-.291-.053-1.05-.123-2.1-.159-3.15-.079-2.2-.256-4.385-.194-6.582a2.337,2.337,0,0,0-.176-.944,2.215,2.215,0,0,0-.1-.212c-.106-.2-.23-.4-.362-.6A.971.971,0,0,1,71.2,42.3c.132-.512.23-1.041.326-1.562.044-.247.115-.38.4-.282a1.471,1.471,0,0,0,.344.035c.468.106.953.115,1.421.23a.266.266,0,0,1,.123.035,7.965,7.965,0,0,1,1.332.176.278.278,0,0,1,.141.035c.529.071,1.059.132,1.588.221a.587.587,0,0,1,.344.062c.018,0,.044-.009.044,0,.618.071,1.1.115,1.632.2h-.053v.018c.353.044.582.088.856.132a5.7,5.7,0,0,0,.847.115h.009c.026,0,.044.009.062.009a.449.449,0,0,0,.08.018.266.266,0,0,1,.274.256c.141.838.256,1.677.432,2.515,0,.062.035.115.026.168.026.141.044.274.071.406.08.406.15.812.23,1.218a.582.582,0,0,0,.009.132v.035c.088.529.185,1.006.274,1.509v.168a6.328,6.328,0,0,0-.476.591,5.9,5.9,0,0,0-.626,1.1c-.115.274-.256.556-.371.83l-.017.009a5.672,5.672,0,0,1-.362.821c-.009,0-.017.018-.026.035-.018.035-.026.088-.044.115v.009a12.516,12.516,0,0,1-.5,1.156c-.062.124-.132.247-.2.371-.026.071-.088.141-.088.2a4.3,4.3,0,0,1-.335.98,2.776,2.776,0,0,1-.274.83,7.734,7.734,0,0,1-.476,1.447.624.624,0,0,0-.07.2c0,.009-.009.018-.009.027a.766.766,0,0,1-.035.106.57.57,0,0,1-.035.115c0,.009-.009.026-.009.035-.044.909-.1,1.817-.141,2.727l.079.026c.115-.23.23-.45.344-.68s.2-.45.326-.68a1.329,1.329,0,0,0,.185-.476c.265-.441.5-.883.776-1.288.026-.044.08-.071.106-.159.23-.353.494-.821.768-1.226.1-.156.2-.295.286-.45h0c.062-.176.159-.2.238-.282a.8.8,0,0,1,.3-.238,1.5,1.5,0,0,1,.009.194c0,.009-.009.026-.009.035a.465.465,0,0,1-.026.106c0,.009-.009.026-.009.035-.009.026-.009.044-.018.071a.2.2,0,0,0-.009.071c0,.026-.018.044-.009.071a.2.2,0,0,1-.013.053h.013a13.174,13.174,0,0,0-.088,1.685c0,.026-.017.071-.017.088l.017-.009c.071.529.159,1.059.23,1.588h-.009a.6.6,0,0,1,.018.159c.088.529.2,1.067.265,1.606,0,.017.009.044.009.061a.374.374,0,0,1,.018.1,4.348,4.348,0,0,0,.6,1.085c.141.2.291.441.424.618h.009v.009a16.327,16.327,0,0,0,1.306,1.138c.07,0,.141.088.212.088h-.009V63.3c.176.018.326.159.512.106a.326.326,0,0,0,.1-.044c.026-.018.062-.035.071-.062.044-.08-.035-.124-.1-.15-.724-.459-.609-1.209-.7-1.915h.026v-.009a5.964,5.964,0,0,1,.45.512.46.46,0,0,0,.088.1c.062.071.124.132.185.2a3.927,3.927,0,0,0,.4.371,2.843,2.843,0,0,0,.459.326c.071.026.141.088.2.088H85.9c.529.256.988.5,1.473.759a.546.546,0,0,1,.291.132A4.062,4.062,0,0,1,88,65.39c.018,0,.035.062.044.106a.244.244,0,0,1-.009.115,6.052,6.052,0,0,1-.009,1.544.162.162,0,0,1-.009.141c-.009.018,0,.026-.009.044h.009a5.93,5.93,0,0,1-.141,1.527c-.009.5-.168.988-.221,1.491a.229.229,0,0,1-.017.062c-.026.1-.071.212.141.185V70.6c.477-.494.953-.98,1.394-1.536V69.1a.489.489,0,0,1,.212-.353,5.826,5.826,0,0,0,.556-.732c.185-.256.371-.5.556-.759,0-.018.009-.026.009-.044a.273.273,0,0,1,.106-.168.125.125,0,0,1,.053-.018h.053a.487.487,0,0,1,.185.071,3.063,3.063,0,0,1,.282.176,4.453,4.453,0,0,1,1.526.988c.044.044.1.053.141.141a1.421,1.421,0,0,1,.485.485c.044.044.1.088.141.132.009.009.018.009.026.018.7.591.75.909.247,1.694-.018.026-.044.053-.062.053a.87.87,0,0,1-.089.2.967.967,0,0,1-.07.132c-.009.018-.026.044-.035.062a2.191,2.191,0,0,0-.326.68,1.623,1.623,0,0,0-.044.618c.1.344.185.7.256,1.05a5.152,5.152,0,0,1,.106.644A.958.958,0,0,1,92.871,75.231Zm2.347,4.3h0c-.115.141-.132.432-.318.406h-.018c-.017,0-.035.009-.053,0a2.292,2.292,0,0,1-.979-.318c-.106-.071-.08-.2-.08-.327V77.622c0-.115.044-.247-.07-.326-.388-.247-.291-.671-.388-1.023-.035-.141.061-.212.141-.3.344-.38.68-.759,1.024-1.138a.657.657,0,0,0,.159-.821,1.953,1.953,0,0,1-.009-1.782c.2-.476.335-.979.52-1.544.018.018.035.044.053.062h0a8.565,8.565,0,0,1,.917,1.236,5.63,5.63,0,0,0,2.435,2.409,4.42,4.42,0,0,0,1.522.7h.009c.026,0,.042,0,.068-.005.062,0,.148-.008.131.088-.009.053-.062.053-.115.044h-.026a.111.111,0,0,1-.053-.009,10.055,10.055,0,0,0-1.812.247c-.313.066-.625.139-.936.212-.281.065-.562.129-.844.185a.329.329,0,0,0-.053.016l-.009,0c-.123.026-.176.088-.159.212a.261.261,0,0,0,.247.265,4.784,4.784,0,0,0,.961.061h.045a9.206,9.206,0,0,0,1.3-.124,8.93,8.93,0,0,1,1.447-.115,9.563,9.563,0,0,1,1.412.106,19.322,19.322,0,0,0-4.315,1.747c-.741.309-1.315.9-2.021,1.28C95.3,79.369,95.271,79.466,95.218,79.528Zm4.571,1.165h0c0,.009-.009.009-.009.018a.032.032,0,0,1-.026.009c-.009,0-.027-.009-.035-.009a.108.108,0,0,1-.044-.044c-1.032-.256-2.074-.512-3.168-.785.362-.291.626-.459,1.068-.291.724.282,1.394.68,2.091,1.006a.155.155,0,0,1,.106.035c.018.009.018.018.018.044v.018Zm3.115,3.38a2.486,2.486,0,0,1-.68.68,5.4,5.4,0,0,1-1.773.891,8.018,8.018,0,0,1,.9-2.153,1.132,1.132,0,0,1,1.385-.274A.6.6,0,0,1,102.9,84.072Zm4.112-4.694h0c-.812.653-1.615,1.315-2.373,2.029a.373.373,0,0,1-.538.053,34.3,34.3,0,0,0-4.032-2c-.609-.256-1.253-.361-1.879-.582.071-.132.2-.132.309-.168,1.35-.5,2.727-.953,4.05-1.544a1.759,1.759,0,0,1,1.024.017,2.263,2.263,0,0,0,1.447-.168.282.282,0,0,1,.265-.035c1.024.424,2.047.847,3.106,1.28Q107.71,78.826,107.015,79.378Zm6.318-4.483h0a1.847,1.847,0,0,0-.282,1.8,1.2,1.2,0,0,1-.67,1.65.837.837,0,0,1-.441.132.463.463,0,0,1-.326-.106,18.362,18.362,0,0,0-4.562-1.817,5.65,5.65,0,0,0-.662-.212c-.265-.062-.247-.238-.212-.424.026-.132.1-.15.168-.141.071-.018.168.035.23.053a43.221,43.221,0,0,1,5.25,1.456.737.737,0,0,0,.159.044c.123-.018.159-.132.141-.3-.035-.4-.071-.785-.529-1a10.291,10.291,0,0,0-3.583-.856q-.273-.024-.547-.035a17.45,17.45,0,0,0,2.621-1.491,3.674,3.674,0,0,0,.274-.247l1.465-1.773c.062-.1.115-.194.176-.291a.18.18,0,0,1,.044.026l.027-.026a.4.4,0,0,1,.185.273c.371.909.732,1.827,1.1,2.735A.49.49,0,0,1,113.333,74.9ZM132.207,37.4h0a.235.235,0,0,1,.053.088.085.085,0,0,1-.009.079.151.151,0,0,1-.053.053.545.545,0,0,0-.035.053l-.009.009c-.009.009-.009.018-.018.035a.031.031,0,0,1-.009.018h.009v.026a.994.994,0,0,0,.035,1.527.278.278,0,0,1,.053.132c.353.467.062.935,0,1.4-.009.044-.017.062-.053.08-.009,0-.017.009-.026.009a.442.442,0,0,1-.106-.018c-.009,0-.026-.009-.035-.009-.309-.088-.618-.185-.926-.282-.026,0-.044-.017-.071-.026s-.044-.026-.07-.026a1.043,1.043,0,0,1-.433-.07.927.927,0,0,0-1.076.185.211.211,0,0,1-.018.071,1.037,1.037,0,0,0,.618.344,16.65,16.65,0,0,1,2.5,1.28.538.538,0,0,1,.212.556,3.2,3.2,0,0,1-.07.38l-.265,1.138a.465.465,0,0,1-.071.282c.009.618-.423,1.077-.626,1.606a.478.478,0,0,0-.071.15,11.883,11.883,0,0,1-.476,1.094c0,.026-.035.062-.044.088v-.018c0,.009-.009.009-.009.018s-.009.017-.018.035-.009.018-.018.026a.956.956,0,0,1-.212.485,7.034,7.034,0,0,1-.688,1.588.262.262,0,0,0-.061.132c-.23.529-.468,1.165-.7,1.747-.053.212-.1.424-.15.626l-.026.053c0,.009-.009.009-.009.018s-.017.035-.026.053a1.652,1.652,0,0,1-.132.706c-.044.141-.079.3-.124.441a.277.277,0,0,1-.017.071c-.247,1.121-.494,2.241-.741,3.353-.2.917-.282,1.853-.432,2.771-.141.865-.176,1.756-.388,2.6a8.988,8.988,0,0,1-.785,1.765,17.039,17.039,0,0,1-.759,1.632l-.027.053a.6.6,0,0,0-.044.115c-.009.017-.009.044-.018.062-.009.044-.017.079-.026.123a.67.67,0,0,0-.009.132.67.67,0,0,1-.009.132v.132c0,.088,0,.176-.009.265a23.59,23.59,0,0,0-.15,2.841.288.288,0,0,1-.212.335l-.212.08c-.141.053-.282.115-.415.176-.071.026-.15.062-.221.088a2.407,2.407,0,0,1-.362.124V70.4a.108.108,0,0,1-.044.018c-.159.071-.326.141-.485.2-.115.044-.23.1-.344.141a2.333,2.333,0,0,1-.776.335l-.132.079c-.556.247-1.138.5-1.668.75,0,.009-.053.026-.07.026a6.881,6.881,0,0,0-.909.406c-.326.141-.644.274-.971.415-.512.229-1.024.441-1.536.67-.017.009-.044,0-.062,0-.467.176-.953.433-1.394.635a6.571,6.571,0,0,1-.653.282c-.406.159-.494.141-.582-.274-.265-.194-.291-.521-.388-.794s-.176-.556-.265-.821c-.017-.088-.062-.071-.062-.124a1.208,1.208,0,0,1-.132-.361c0-.018-.009-.044-.009-.062-.026-.018-.026-.044-.035-.071s-.018-.044-.026-.062h.018c-.124-.371-.256-.732-.344-1.1a4.779,4.779,0,0,1-.291-.741.631.631,0,0,1,0-.256c.009-.044.018-.08.026-.124.009-.018.009-.044.017-.062a5.708,5.708,0,0,1,.274-.511c.061-.141.114-.282.176-.424s.115-.247.176-.424c.141-.265.23-.574.406-.882a.974.974,0,0,1,.071-.212c.159-.538.335-1.085.547-1.606,0-.017-.018-.044-.009-.062.062-.318.361-.432.538-.618v.009c.088-.026.132-.079.176-.079a.786.786,0,0,1,.159-.176c.1-.115.185-.238.274-.361a2.167,2.167,0,0,0,.124-.185c.168-.247.318-.5.5-.75.062-.079.115-.2.212-.2a.079.079,0,0,1,.044.009c.141.035.1.2.08.309a3.234,3.234,0,0,0,0,1.2c.044.309.1.617.124.926,0,.044-.009.1-.009.141a2.125,2.125,0,0,1,.132.7c.07.3.132.591.221.891a11.97,11.97,0,0,1,.635,1.668l.018-.009c.3.441.6.953.9,1.438a3.446,3.446,0,0,0,.274.326h.017V70.7c.088,0,.132.194.265.018-.026-.088-.044-.088-.071-.088a1.672,1.672,0,0,1-.115-.291c-.018-.061-.044-.132-.053-.185a1.394,1.394,0,0,1-.044-.185c-.009-.026-.009-.062-.018-.088a1.063,1.063,0,0,0-.035-.176c-.018-.088-.026-.176-.044-.274s-.026-.185-.044-.274a.127.127,0,0,1-.026-.1.51.51,0,0,0-.035-.106c-.009-.106-.026-.212-.044-.318L118.709,68c-.009-.106-.044-.212-.053-.318a13.353,13.353,0,0,1,.132-3.459h.053c.106-.53.212-1.138.318-1.712.026,0,.053.009.088.009a11.037,11.037,0,0,0,.274,2.85.15.15,0,0,1,.009.062c.132.362.274.724.388,1.094.026.08.053.159.079.23a.933.933,0,0,0,.106.212,1.215,1.215,0,0,0,.1.132c.026.044.079.088.079.132a2.286,2.286,0,0,1,.2.221c.053.061.1.132.15.194.185.176.38.344.609.574q-.036-.255-.062-.512c-.017-.159-.044-.318-.062-.494,0,0-.044-.026-.044-.044a3.043,3.043,0,0,0-.035-.4c-.053-.406-.1-.812-.15-1.209a.365.365,0,0,1,.009-.1.924.924,0,0,1,.009-.1,9.947,9.947,0,0,1-.071-1.527c0-.017-.009-.044-.009-.062a.343.343,0,0,1-.026-.123,4.135,4.135,0,0,1,.018-1.236c.017-.124.009-.256.017-.38,0-.026-.009-.044-.009-.071a5.794,5.794,0,0,1,.2-1.738.5.5,0,0,1,.009-.062c.044-.265.088-.582.132-.873s.088-.591.124-.882c.018-.124.053-.185.124-.185a.283.283,0,0,1,.15.062c.062.035.124.08.185.115.088.053.185.115.274.176a1.866,1.866,0,0,1,.256.2.122.122,0,0,0,.035.026.425.425,0,0,0,.062.044h.017v-.009a4.556,4.556,0,0,1,1.376,1.315.924.924,0,0,1,.194.176,1.138,1.138,0,0,1,.212.38A3.977,3.977,0,0,1,124.8,61.9c.009.035.027.08.035.115s.026.018.035.106a1.27,1.27,0,0,1,.159.309c.044.106.08.212.124.309.026.053.044.1.071.15a.32.32,0,0,0,.061.088.254.254,0,0,0,.15.088c.1-.326-.132-.635-.044-.944h.027c0-.088-.027-.088-.027-.132a6.306,6.306,0,0,0-.4-1.668,1.042,1.042,0,0,1-.009-.141,8.117,8.117,0,0,0-.626-1.535.379.379,0,0,1-.132-.23.943.943,0,0,1-.2-.3c-.044-.071-.088-.141-.141-.23v.061c0-.009-.018-.017-.018-.026v-.009a10.138,10.138,0,0,0-.812-1.023l-.035-.035c-.035-.035-.07-.035-.106-.124a3.083,3.083,0,0,1-.626-.538c-.026-.026-.053-.035-.07-.062s0-.035-.088-.062c-.441-.3-.768-.671-1.156-.935-.071-.088-.159-.035-.194-.176a27.274,27.274,0,0,1,3.388.132v-.044h.009a6.5,6.5,0,0,1,1.606.415c.017,0,.035.027.061.027V55.5a5.025,5.025,0,0,1,1.024.4c.071.035.159.15.238.044.062-.088-.035-.168-.088-.238-.132-.185-.256-.371-.4-.556-.026-.044-.07-.088-.07-.132-.265-.256-.468-.547-.7-.8a3,3,0,0,1-.22-.238,4.26,4.26,0,0,1-.768-.626c-.044-.026-.088-.079-.132-.079-.115,0-.238-.124-.353-.2s-.238-.15-.353-.23c-.044-.026-.088-.044-.132-.07-.538-.2-1.077-.388-1.615-.591-.017,0-.053-.009-.053-.017a.2.2,0,0,1-.062-.009.4.4,0,0,1-.265-.106.293.293,0,0,1-.1-.132c-.009-.009-.009-.026-.018-.044a.5.5,0,0,1-.026-.23,3.564,3.564,0,0,0-.044-.812,2.135,2.135,0,0,0-.044-.23c-.017-.074-.034-.147-.053-.221s-.035-.15-.053-.23q-.041-.164-.088-.326s-.035-.009-.035-.035a13.3,13.3,0,0,0-.459-1.606c-.026-.07-.035-.124-.062-.212a1.354,1.354,0,0,1-.212-.618,1.554,1.554,0,0,1,.009-.2c0-.035.009-.071.009-.1a1.819,1.819,0,0,1,.071-.3c.035-.132.08-.265.124-.4,0-.018,0-.062.009-.062h-.009a14.073,14.073,0,0,1,.538-1.721c0-.009.018-.009.018-.018l.035-.035c.009-.009.018-.009.018-.018a.976.976,0,0,0,.194-.679,1.2,1.2,0,0,0-.1-.38c-.062-.159-.141-.309-.221-.467a.129.129,0,0,0-.053-.044c-.009-.009-.017-.018-.017-.026a4.4,4.4,0,0,1-.768-1.306c-.017-.044-.044-.1-.061-.141-.018-.018-.018-.035-.026-.062,0-.009-.009-.017-.009-.026a.444.444,0,0,1-.026-.062l.009.009c0-.009,0-.009-.009-.018a1.041,1.041,0,0,1,.044-.159c.018-.035.035-.062.053-.1a.572.572,0,0,1,.071-.08c.009-.009.026-.018.035-.026.238-.344.459-.706.724-1.041a.954.954,0,0,0,.185-.926c-.15-.5-.132-.512.371-.7.088-.035,1.156-.441,1.588-.573.071-.026.247-.1.274-.106s.044-.018.071-.026c.071-.026.141-.053.2-.079.556-.212,1.112-.415,1.668-.618a.149.149,0,0,1,.061-.009,12.05,12.05,0,0,1,1.624-.618,1.337,1.337,0,0,1,.221-.071c.088-.07.353-.132.441-.2.441-.141.794-.344,1.191-.432.582-.441,1.059-.256,1.456.291a1.827,1.827,0,0,1,.159.115c.079.071.106.15.194.238C131.431,36.592,131.828,37,132.207,37.4Zm-12.406.485h0a1.043,1.043,0,0,1-.141.035c-.132.017-.2-.044-.291-.2q-1.2-2.171-2.435-4.324c-.106-.185-.141-.282.123-.353q7.822-2.289,15.636-4.579c.053-.018.115-.026.221-.053v.018l.008,0c-.079.942-.159,1.831-.229,2.72l-.159,1.968a.462.462,0,0,1-.344.476Q125.989,35.723,119.8,37.888Z" transform="translate(-67.273 -1.847)" fill="#1a1a1a"/>
      <path id="Path_356" data-name="Path 356" d="M197.03,293.054h0c1.465.123,2.912.415,4.368.618a1.64,1.64,0,0,1,.574.132,1.854,1.854,0,0,1,.83,1.068,6.9,6.9,0,0,1,.38,2.074,1.524,1.524,0,0,1-.529,1.394,2.046,2.046,0,0,0-.732,1.023,1.617,1.617,0,0,1,1.421.574,5.886,5.886,0,0,0,.821.8,1.393,1.393,0,0,0,2.153-.3c.212-.344.415-.7.644-1.032a2.643,2.643,0,0,1,1.191-1.174c.344-.114.194-.282.079-.423a.77.77,0,0,0-1.032-.071,5.937,5.937,0,0,0-1.4,1.377,2.361,2.361,0,0,1-.415.423.394.394,0,0,1-.582-.035,8.518,8.518,0,0,0-.653-.618.368.368,0,0,1-.115-.53,2.676,2.676,0,0,0,.3-1.517,5.223,5.223,0,0,0-1.1-3.185c-.088-.1-.088-.15.035-.238a3.454,3.454,0,0,0,1.5-2.577c.026-.273-.026-.494-.247-.573s-.362.15-.459.326c-.221.379-.5.724-.759,1.077a1.49,1.49,0,0,1-1.535.565c-2.1-.326-4.2-.538-6.318-.662-.106-.009-.212-.035-.3.035a5.785,5.785,0,0,0-1.773,1.721.359.359,0,0,0,.07.026c.071-.009.132-.026.2-.035A10.368,10.368,0,0,1,197.03,293.054Z" transform="translate(-170.17 -237.194)" fill="#1a1a1a"/>
      <path id="Path_357" data-name="Path 357" d="M237.127,348.175h0a.18.18,0,0,0-.282-.08,5.968,5.968,0,0,1-2.25.5c-.326.044-.732-.053-.971.185-.582.573-1.076.335-1.588-.071a.291.291,0,0,0-.089-.053,2.035,2.035,0,0,0-2.294-.018,1.241,1.241,0,0,1-.98.247.672.672,0,0,0-.7.141,2.8,2.8,0,0,1-.371.256c-.344.23-.344.265-.026.52a.634.634,0,0,0,.247.115,2.606,2.606,0,0,0,2.065-.291,1.632,1.632,0,0,1,1.906.115,1.681,1.681,0,0,0,1.765.168,10.918,10.918,0,0,1,2.4-.785c.124-.018.247-.062.362.035.353.326.688.1,1.023-.035.132-.053.15-.159.141-.291C237.463,348.555,237.251,348.4,237.127,348.175Z" transform="translate(-197.896 -284.365)" fill="#1a1a1a"/>
      <path id="Path_359" data-name="Path 359" d="M274.066,292.811h0q-.779.381-1.527.821a1.153,1.153,0,0,1-.415.176,14.818,14.818,0,0,1-2.656.274,2.5,2.5,0,0,1-1.35-.476,1.057,1.057,0,0,1-.538-.741.791.791,0,0,1,.38.026,7.582,7.582,0,0,0,1.4.2,12.523,12.523,0,0,0,3.3-.785c.353-.124.7-.256,1.041-.38.159-.053.2-.106.062-.256a.522.522,0,0,0-.538-.123,20.675,20.675,0,0,1-6.873-.168c-.662-.124-1.368-.168-1.624-.988a5.7,5.7,0,0,1-.185-.67,1.362,1.362,0,0,0-.344-.626.327.327,0,0,0-.335-.141c-.141.035-.132.185-.132.291.009.371.026.741.071,1.112a2.337,2.337,0,0,0,.415,1.13,3.1,3.1,0,0,0,1.871,1.226c.574.132.574.141.626.732a.713.713,0,0,0,.3.626,3.043,3.043,0,0,0,1.332.538,1.6,1.6,0,0,1,.891.247,2.142,2.142,0,0,0,1.174.362c.309.026.626.035.935.088a.658.658,0,0,0,.591-.185c.874-.724,1.738-1.456,2.559-2.268A.333.333,0,0,0,274.066,292.811Z" transform="translate(-227.59 -236.131)" fill="#1a1a1a"/>
      <path id="Path_360" data-name="Path 360" d="M242.286,361.21h0a8.839,8.839,0,0,0-2.586.45c-.679.23-1.438.388-1.791,1.174a11.45,11.45,0,0,0-.318,1.4,2.423,2.423,0,0,0,.274,1.032c.062.088.088.23.238.221s.212-.141.256-.247a7.385,7.385,0,0,0,.3-1.068,1.8,1.8,0,0,1,1.032-1.288c.626-.265,1.262-.512,1.9-.759a.674.674,0,0,1,.371-.044,5.307,5.307,0,0,1,2.3.538.29.29,0,0,0,.23.044c.265-.062.291-.15.132-.361A2.657,2.657,0,0,0,242.286,361.21Z" transform="translate(-206.258 -295.096)" fill="#1a1a1a"/>
      <path id="Path_361" data-name="Path 361" d="M203.419,313.282h0c.53-.053,1.059-.123,1.58-.194.141-.018.362.035.4-.132s-.168-.282-.291-.4a.6.6,0,0,0-.256-.1,3.01,3.01,0,0,0-1.606-.053,7.689,7.689,0,0,1-3.265,0,8.991,8.991,0,0,0-.953-.115,7.179,7.179,0,0,0-1.3.388c-.3.141-.318.309-.053.512a.5.5,0,0,0,.511.115,1.712,1.712,0,0,1,1.818.353,1.869,1.869,0,0,0,1.923.318,6.866,6.866,0,0,0,1.077-.547A1.17,1.17,0,0,1,203.419,313.282Z" transform="translate(-173.533 -255.181)" fill="#1a1a1a"/>
      <path id="Path_362" data-name="Path 362" d="M168.471,308.5h0a1.194,1.194,0,0,0-.467-1.174,1.283,1.283,0,0,1-.512-.741,2.657,2.657,0,0,0-.494-1.13c-.088-.088-.15-.282-.309-.22a.578.578,0,0,0-.415.424,1.81,1.81,0,0,0,1.023,2.029,1.793,1.793,0,0,1,.83.847c.062.132.071.388.265.344S168.428,308.6,168.471,308.5Z" transform="translate(-148.026 -249.415)" fill="#1a1a1a"/>
    </g>
    <path id="Path_363" data-name="Path 363" d="M87.875,219.2a.129.129,0,0,0-.017-.053c-.018.044-.044.1-.062.15a.549.549,0,0,0,0,.318.79.79,0,0,0,.079-.414" transform="translate(-72.833 -178.865)" fill="#2e2e2e"/>
  </g>
</svg>
