<svg xmlns="http://www.w3.org/2000/svg" width="1000" height="1000" viewBox="0 0 3821 2040">
  <g id="Group_518" transform="translate(-3273 544)">
    <g id="sms-otp" transform="translate(4394 1516)">
      <g id="Rectangle_618-2" data-name="Rectangle 618" transform="translate(748 -1182)" fill="#fff" stroke="rgba(188,188,188,0.5)" stroke-width="1">
        <rect width="420" height="323" rx="21" stroke="none"/>
        <rect x="0.5" y="0.5" width="419" height="322" rx="20.5" fill="none"/>
      </g>
      <text id="Authenticating_with_SMSOTP" data-name="Authenticating with SMSOTP" transform="translate(812 -1131)" fill="#323232" font-size="24" font-family="Roboto-Regular, Roboto"><tspan x="0" y="0">Authenticating with SMSOTP</tspan></text>
      <text id="WSO2_Identity_Server_2020-3" data-name="WSO2 Identity Server © 2020" transform="translate(865 -820)" fill="#fff" font-size="14" font-family="SegoeUI, Segoe UI"><tspan x="0" y="0">WSO2 Identity Server © 2020</tspan></text>
      <g id="Component_4" data-name="Component 4" transform="translate(990 -954)">
        <rect id="Rectangle_25-4" data-name="Rectangle 25" width="139" height="41" rx="4" fill="#f47b20"/>
        <text id="Authenticate" transform="translate(0 9.658)" fill="#fff" font-size="16" font-family="Lato-Bold, Lato" font-weight="700"><tspan x="23.084" y="16">Authenticate</tspan></text>
      </g>
      <g id="form.checkbox.unchecked-2" data-name="form.checkbox.unchecked" transform="translate(792 -995)">
        <text id="Remember_the_device." data-name="Remember the device." transform="translate(27 14)" fill="rgba(0,0,0,0.8)" font-size="14" font-family="Roboto-Regular, Roboto"><tspan x="0" y="0">Remember the device.</tspan></text>
        <g id="Group_510-2" data-name="Group 510">
          <g id="Rectangle_133-2" data-name="Rectangle 133" fill="#fff" stroke="#d4d4d5" stroke-width="1">
            <rect width="17" height="17" rx="4" stroke="none"/>
            <rect x="0.5" y="0.5" width="16" height="16" rx="3.5" fill="none"/>
          </g>
        </g>
      </g>
      <g id="Component_6" data-name="Component 6" transform="translate(790 -1051)">
        <g id="Rectangle_25-5" data-name="Rectangle 25" fill="none" stroke="rgba(118,118,118,0.35)" stroke-width="1">
          <rect width="337.338" height="36" rx="4" stroke="none"/>
          <rect x="0.5" y="0.5" width="336.338" height="35" rx="3.5" fill="none"/>
        </g>
        <text id="Enter_the_one_time_code" data-name="Enter the one time code" transform="translate(50 9)" fill="rgba(0,0,0,0.6)" font-size="14" font-family="Roboto-Regular, Roboto" opacity="0.35"><tspan x="0" y="15">Enter the one time code</tspan></text>
        <g id="Group_511" data-name="Group 511" transform="translate(17.625 7.5)">
          <g id="Group_511-2" data-name="Group 511">
            <path id="Path_331" data-name="Path 331" d="M213.958,280.09l-.241,2.167a.382.382,0,0,0,.38.424h1.528a.382.382,0,0,0,.38-.424l-.241-2.167a1.511,1.511,0,0,0,.625-1.229,1.528,1.528,0,1,0-3.056,0A1.511,1.511,0,0,0,213.958,280.09Zm.9-1.993a.761.761,0,0,1,.33,1.449.382.382,0,0,0-.213.386l.221,1.985h-.674l.221-1.985a.382.382,0,0,0-.213-.386.761.761,0,0,1,.33-1.449Z" transform="translate(-207.986 -267.402)" fill="#767676"/>
            <path id="Path_332" data-name="Path 332" d="M77.369,6.875H76.223V5.347a5.347,5.347,0,0,0-10.695,0V6.875H64.382A.382.382,0,0,0,64,7.257v9.549a1.529,1.529,0,0,0,1.528,1.528H76.223a1.529,1.529,0,0,0,1.528-1.528V7.257A.382.382,0,0,0,77.369,6.875ZM66.292,5.347a4.584,4.584,0,1,1,9.167,0V6.875h-.764V5.347a3.82,3.82,0,1,0-7.639,0V6.875h-.764Zm7.639,0V6.875H67.82V5.347a3.056,3.056,0,0,1,6.111,0Zm3.056,11.459a.765.765,0,0,1-.764.764H65.528a.765.765,0,0,1-.764-.764V7.639H76.987Z" transform="translate(-64)" fill="#767676"/>
          </g>
        </g>
      </g>
      <text id="Enter_the_code_sent_to_your_mobile_phone:" data-name="Enter the code sent to your mobile phone:" transform="translate(792 -1084)" fill="rgba(0,0,0,0.8)" font-size="14" font-family="Roboto-Regular, Roboto"><tspan x="0" y="15">Enter the code sent to your mobile phone:</tspan></text>
      <g id="logo-3" data-name="logo" transform="translate(831 -1212.361)">
        <circle id="Ellipse_1-2" data-name="Ellipse 1" cx="5.794" cy="5.794" r="5.794" transform="translate(58.59 -5.212)" fill="#f47b20"/>
        <path id="Path_326-2" data-name="Path 326" d="M84.99,1.6l-.007-.077h-2.25l-.023.042q-.4.711-.8,1.427l-.232.417q-.6-1.454-1.2-2.909-.63-1.535-1.263-3.069l-.073-.177-.079.175q-.456,1.005-.906,2.014c-.413.922-.841,1.875-1.27,2.808-.6-.005-1.2,0-1.8,0-.549,0-1.1,0-1.65,0h-.085v.085a4.216,4.216,0,0,0,.055.547l.014.1H73.5q1.432,0,2.862,0h1.008l.023-.049q.44-.972.877-1.947.421-.938.845-1.874Q79.762.66,80.4,2.215q.558,1.359,1.118,2.718l.065.158.085-.149q.576-1.025,1.146-2.055l.352-.634H84.99L85,2.177A3.557,3.557,0,0,0,84.99,1.6Z" transform="translate(-14.787 -1.299)" fill="#fff"/>
        <path id="Path_327-2" data-name="Path 327" d="M29-6.62c.566,0,1.131,0,1.7,0q2.065,5.082,4.132,10.165c1.379-3.4,2.748-6.8,4.142-10.185q2.067,5.1,4.137,10.189Q45.176-1.534,47.24-6.62c.571,0,1.144,0,1.715,0Q46.072.5,43.183,7.623c-.005.069-.1.182-.128.049q-2.042-5.053-4.085-10.1C37.581.975,36.209,4.39,34.826,7.8Q31.907.593,29-6.62Z" fill="#f47b20"/>
        <path id="Path_328-2" data-name="Path 328" d="M59.632-5.881a4.554,4.554,0,0,1,3.167-.7,4.085,4.085,0,0,1,2.909,2.142c-.412.271-.833.529-1.243.8-.219-.24-.367-.535-.6-.767a2.134,2.134,0,0,0-1.139-.685,2.673,2.673,0,0,0-2.489.722A1.83,1.83,0,0,0,60.37-1.75,14.037,14.037,0,0,0,62.154-.692,14.479,14.479,0,0,1,64.44.5,4.293,4.293,0,0,1,65.774,1.73a3.876,3.876,0,0,1,.358,2.6,4.25,4.25,0,0,1-1.921,2.795,4.519,4.519,0,0,1-2.934.645,4.057,4.057,0,0,1-2.5-1.083A4.861,4.861,0,0,1,57.455,4.2c.509-.156,1.017-.309,1.525-.465a3.628,3.628,0,0,0,1.193,2.08,2.785,2.785,0,0,0,2.237.453,2.729,2.729,0,0,0,2.007-1.649,2.813,2.813,0,0,0,.105-1.769,1.772,1.772,0,0,0-.741-.962A15.59,15.59,0,0,0,61.525.647,11.187,11.187,0,0,1,59.79-.31,3.957,3.957,0,0,1,58.612-1.38a3.375,3.375,0,0,1-.355-2.465A3.306,3.306,0,0,1,59.632-5.881Z" transform="translate(-9.485 -0.007)" fill="#f47b20"/>
        <path id="Path_329-2" data-name="Path 329" d="M77.932-6.6a7.264,7.264,0,0,1,3.414.576A7.217,7.217,0,0,1,85.575-.688a7.22,7.22,0,0,1-.716,4.626,7.233,7.233,0,0,1-4.895,3.7A7.283,7.283,0,0,1,75.852,7.3a7.216,7.216,0,0,1-3.173-2.411A7.146,7.146,0,0,1,71.26.954a7.156,7.156,0,0,1,1.463-4.737A7.216,7.216,0,0,1,77.932-6.6Zm-.865,1.633a5.76,5.76,0,0,0-3.659,2.857,6.007,6.007,0,0,0-.681,3.154h.016A4.348,4.348,0,0,0,72.8,1.6a5.775,5.775,0,0,0,3.18,4.2,5.733,5.733,0,0,0,4.3.273,5.765,5.765,0,0,0,2.9-2.169A5.72,5.72,0,0,0,84.209.878,3.349,3.349,0,0,0,84.2.317a5.763,5.763,0,0,0-1.064-3.054A5.767,5.767,0,0,0,80.1-4.909,5.712,5.712,0,0,0,77.068-4.972Z" transform="translate(-14.083 -0.006)" fill="#060709"/>
        <path id="Path_330-2" data-name="Path 330" d="M92.182,3.369a4.283,4.283,0,0,1,2.319.01,3.447,3.447,0,0,1,2.212,2.149,3.79,3.79,0,0,1-.384,3.165,14.576,14.576,0,0,1-1.671,2.088q-1.461,1.578-2.925,3.155,2.661,0,5.322,0c0,.379,0,.757,0,1.137-2.629,0-5.257,0-7.886,0,1.679-1.821,3.375-3.627,5.047-5.453a5.437,5.437,0,0,0,1.5-2.427,2.314,2.314,0,0,0-.657-2.126,2.634,2.634,0,0,0-2.906-.506A6.606,6.606,0,0,0,92.182,3.369Z" transform="translate(-20.056 -3.284)" fill="#060709"/>
      </g>
      <text id="IDENTITY_SERVER-2" data-name="IDENTITY SERVER" transform="translate(915 -1205)" fill="#fff" font-size="17" font-family="SegoeUI-Semibold, Segoe UI" font-weight="600"><tspan x="0" y="0">IDENTITY SERVER</tspan></text>
    </g>
  </g>
</svg>
