<svg xmlns="http://www.w3.org/2000/svg" width="325.5" height="80.35" viewBox="0 0 325.5 80.35">
  <g id="logo-3" transform="translate(-401.5 -388.98)">
    <path id="Path_2285" data-name="Path 2285" d="M720.99,388.98l1.93,3.35-2.14,3.71h4.28l1.94,3.35H714.97Z" fill="#ff7300"/>
    <path id="Path_2286" data-name="Path 2286" d="M705.95,399.39l1.94-3.35h4.28l-2.14-3.71,1.93-3.35,6.02,10.41Z" fill="#ff7300"/>
    <path id="Path_2287" data-name="Path 2287" d="M718.62,407.2l-2.14-3.71-2.15,3.71h-3.87l6.02-10.41,6.01,10.41Z"/>
    <path id="Path_2288" data-name="Path 2288" d="M445.61,436.08v-7.79h19.66a3.27,3.27,0,0,0,0-6.54h-8.6a11.06,11.06,0,0,1,0-22.12h19.66v7.79H456.67a3.22,3.22,0,0,0-2.31.95,3.27,3.27,0,0,0,2.31,5.59h8.6a11.06,11.06,0,1,1,0,22.12Z"/>
    <path id="Path_2289" data-name="Path 2289" d="M497.42,436.08a18.23,18.23,0,1,1,0-36.45h15.36v7.79H497.42a10.44,10.44,0,0,0,0,20.87H505v-6.54h-5.73V414h13.52v22.12Z"/>
    <path id="Path_2290" data-name="Path 2290" d="M587.11,436.08l-17.58-17.42v17.42h-7.79V399.63H581.4a11.06,11.06,0,0,1,7.82,18.88,11.811,11.811,0,0,1-3.12,2.25l-2.32,1.13L598,436.08ZM581.4,414a3.27,3.27,0,0,0,0-6.54H569.53V414Z"/>
    <path id="Path_2291" data-name="Path 2291" d="M600.89,436.08V399.63h15.36a18.23,18.23,0,1,1,0,36.45Zm15.36-7.79a10.44,10.44,0,0,0,0-20.87h-7.57v20.87Z"/>
    <path id="Path_2292" data-name="Path 2292" d="M688.54,436.08a18.21,18.21,0,1,1,12.89-5.34,17.39,17.39,0,0,1-12.89,5.34Zm0-28.66a10.45,10.45,0,1,0,7.37,3.06,10.13,10.13,0,0,0-7.37-3.06Z"/>
    <path id="Path_2293" data-name="Path 2293" d="M401.5,436.08h8.71l12.34-21.37,12.33,21.37h8.7l-21.03-36.45Z"/>
    <path id="Path_2294" data-name="Path 2294" d="M516.16,436.08h8.71l12.33-21.37,12.33,21.37h8.71L537.2,399.63Z"/>
    <path id="Path_2295" data-name="Path 2295" d="M637.84,435.97V399.65h30.45v7.72H645.61v6.68h17.01v7.54H645.61v6.66h22.68v7.72Z"/>
    <path id="Path_2296" data-name="Path 2296" d="M674.49,447.69l-4.88,12.44-4.9-13.31-5.2,13.28-4.43-12.41h-2.01l6.37,17.44,5.22-13.29,4.9,13.3,6.95-17.45Z" fill="#ff7300"/>
    <path id="Path_2297" data-name="Path 2297" d="M684.3,456.55c-.81-.67-5.07-2.88-5.62-3.26a1.91,1.91,0,0,1-.82-1.67,2.21,2.21,0,0,1,.83-1.78,3.08,3.08,0,0,1,2-.68,2.739,2.739,0,0,1,1.32.29,3.38,3.38,0,0,1,1,1l.18.27a1.373,1.373,0,0,1,.2.25l1.46-.95a5.259,5.259,0,0,0-1.8-1.93,4.4,4.4,0,0,0-2.33-.66,5,5,0,0,0-3.46,1.2,3.92,3.92,0,0,0-1.34,3.06,3.25,3.25,0,0,0,1.22,2.72c.81.64,4.87,2.75,5.5,3.18a2.16,2.16,0,0,1,.94,1.91,3.25,3.25,0,0,1-.95,2.4,3.29,3.29,0,0,1-2.43,1,3,3,0,0,1-2.14-.8,4.431,4.431,0,0,1-1.19-2.28l-1.79.54a6.233,6.233,0,0,0,.68,1.79,4.66,4.66,0,0,0,1.12,1.36,5.48,5.48,0,0,0,7-.37,4.89,4.89,0,0,0,1.52-3.62,3.54,3.54,0,0,0-1.1-2.97Z" fill="#ff7300"/>
    <path id="Path_2298" data-name="Path 2298" d="M705.19,455.41a4.819,4.819,0,0,1,1.34-.18,4.1,4.1,0,0,1,4.24,4.11,4.52,4.52,0,0,1-.56,2.19A15.926,15.926,0,0,1,708,464.3l-3.39,3.7H711v1.33h-9.33l5.25-5.67a17.865,17.865,0,0,0,2.08-2.54,3.41,3.41,0,0,0,.48-1.74,2.7,2.7,0,0,0-.86-2,3,3,0,0,0-2.12-.83,3.21,3.21,0,0,0-1.3.25C705.18,456.46,705.19,455.53,705.19,455.41Z"/>
    <ellipse id="Ellipse_242" data-name="Ellipse 242" cx="7.56" cy="7.64" rx="7.56" ry="7.64" transform="translate(687.59 448.34)" fill="#ff7300"/>
    <path id="Path_2299" data-name="Path 2299" d="M695.15,446.6a9.39,9.39,0,1,0,6.649,2.74,9.38,9.38,0,0,0-6.649-2.74Zm0,17a3.157,3.157,0,1,1,0,.02Z"/>
    <path id="Path_2300" data-name="Path 2300" d="M702.69,455.39H700l-1.37,2.46-3.41-8.31-3.06,6.83H687.6a8.074,8.074,0,0,0,.14,1.1h5.08l2.31-5.13,3.3,8.05,2.17-3.89h2.09v-.51C702.69,455.82,702.7,455.58,702.69,455.39Z" fill="#fff"/>
    <path id="Path_2301" data-name="Path 2301" d="M637.8,455.06v-7.75h2.53a2.93,2.93,0,0,1,1.9.52,1.89,1.89,0,0,1,.64,1.54,1.58,1.58,0,0,1-.31,1,2,2,0,0,1-.84.65,1.82,1.82,0,0,1,1,.67,1.94,1.94,0,0,1,.36,1.17,2.06,2.06,0,0,1-.67,1.64,2.79,2.79,0,0,1-1.91.6Zm1-4.45h1.54a1.66,1.66,0,0,0,1.08-.33,1.29,1.29,0,0,0,0-1.84,1.81,1.81,0,0,0-1.14-.3h-1.51Zm0,.82v2.79h1.69a1.59,1.59,0,0,0,1.12-.37,1.27,1.27,0,0,0,.42-1c0-.93-.51-1.4-1.53-1.4Z"/>
    <path id="Path_2302" data-name="Path 2302" d="M646.32,453.62l1.34-4.32h1.05l-2.32,6.7c-.35,1-.92,1.43-1.7,1.43h-.19l-.37-.07v-.8h.27a1.29,1.29,0,0,0,.78-.2,1.41,1.41,0,0,0,.46-.74l.22-.58-2.06-5.7h1.08Z"/>
  </g>
</svg>
